<?xml version="1.0" encoding="utf-8"?>
<!-- Generator: Adobe Illustrator 27.2.0, SVG Export Plug-In . SVG Version: 6.00 Build 0)  -->
<svg version="1.1" id="Capa_1" xmlns="http://www.w3.org/2000/svg" xmlns:xlink="http://www.w3.org/1999/xlink" x="0px" y="0px"
	 viewBox="0 0 480 480" style="enable-background:new 0 0 480 480;" xml:space="preserve">
<style type="text/css">
	.st0{fill:#133431;}
	.st1{fill:#FF6D24;}
</style>
<g id="logo">
	<g>
		<g>
			<path class="st0" d="M190.39,317.78V306.2C190.7,310.21,190.7,314.08,190.39,317.78z"/>
			<path class="st0" d="M65.96,315.46l-0.03-0.05v-2.31C65.93,313.88,65.94,314.67,65.96,315.46z"/>
			<path class="st0" d="M396.78,33.37c-0.26,0.48-0.64,0.94-1.18,1.36c-4.02,3.17-8.51,5.16-12.92,7.7
				c-3.93,2.27-6.65,5.37-8.95,9.25c-4.26,7.17-6.96,15.21-12.22,21.78c-6.33,7.9-15.88,9.05-23.74,14.67
				c-6.81,4.87-14.24,9.42-22.64,5.74c-1.6-0.7-2.26-2.1-2.27-3.57c-2.61,0.28-5.22,0.54-7.83,0.91c-5.49,0.79-8.08,3.37-11.85,7.13
				c-3.59,3.58-7.97,6.33-11.71,9.74c-5.89,5.37-9.65,13.24-12.31,20.65c-1.66,4.64-3.27,9.86-3.36,14.97
				c0.2,0.76,0.22,1.57,0.08,2.34c0.12,1.55,0.4,3.08,0.89,4.57c0.11,0.34,0.18,0.67,0.22,0.98c1.73,4.91,2.07,10.5,2.44,15.49
				c0.56,7.54,0.96,15.23,0.76,22.79c-0.29,11.1-2.64,21.97-3.37,33.03c-0.71,10.73-0.5,21.5,0.91,32.17c0,0.01,0,0.01,0,0.02
				c1.91,0.41,3.56,1.87,3.6,4.38c0.11,6.87,1.58,13.86-2.97,19.7c-0.8,1.02-2.09,1.43-3.4,1.36c0.09,5.05,0.14,10.09,0.14,15.14
				c0,19.02-2.46,39.76-10.27,56.75c-8.82,19.19-23.62,33.23-40.72,41.65l-65.82-26.07c11.59-3.89,21.01-9.73,28-17.26
				c8.18-8.81,13.02-19.92,14.1-32.97v-45.94c-1.98-6.76-5.71-12.95-9.01-19.27l-33.02-3.72l0.27,2.38
				c-9.75-3.48-20.5-4.59-31.41-2.71c-14.43,2.49-26.17,8.84-34.76,18.1l0.27-6.08l-11.08-4.59c-0.02,0.01-0.03,0.03-0.05,0.04
				c-3.43,2.48-5.19,6.9-5.66,11.13v45.97c0,0.78,0.01,1.57,0.03,2.36c0.21,8.62,1.64,17.79,4.35,27.33
				c20.57,72.46,89.76,119.64,164.34,112.06c76.45-7.77,136.4-68.82,138.88-145.66c0.53-16.49,0.38-33-0.14-49.52
				c-0.88-28.61-2.84-57.26-4.13-85.87c-0.71-15.79-2.55-31.96,0.3-46.2c3.57-17.9,14.55-32.78,44.51-40.09V34.86L396.78,33.37z"/>
		</g>
	</g>
	<path class="st1" d="M368.97,78.42c-1.96,13.37-0.35,28.21,0.3,42.74c0.1,2.14,0.19,4.29,0.3,6.43
		c2.07,42.99,5.35,86.07,3.96,128.96c-0.03,1.04-0.08,2.08-0.14,3.11c-3.98,75.36-63.33,134.87-138.75,142.54
		c-13.62,1.38-27.06,0.94-40.05-1.14c-24.65-3.96-47.71-13.84-67.37-28.42c-26.75-19.83-47.23-48.36-56.92-82.5
		c-0.18-0.63-0.35-1.25-0.52-1.88c-12.7-47.46,6.64-85.33,47.43-92.38c35.45-6.12,69.05,19.3,72.94,55.18
		c1.4,12.89-0.37,24.32-5,34.02c-10.49,22.02-35.69,35.1-71.92,35.9c15.07,20.72,38.83,30.31,63.05,29.76
		c31.41-0.7,63.59-18.42,78.55-50.97c5.56-12.09,8.4-26.08,9.58-39.99c0.48-5.65,0.69-11.27,0.69-16.76
		c0.01-33.19-2.08-66.38-3.65-99.58c-0.45-9.51-0.86-19.01-1.16-28.52c-1.79-56.19,23.91-84.52,79.02-87.72
		c21.54-1.25,43.12-1.93,64.69-2.87c3.36,3.5,6.71,7.01,10.07,10.51C382.21,42.64,371.81,58.98,368.97,78.42z"/>
</g>
</svg>
