<?xml version="1.0" encoding="utf-8"?>
<!-- Generator: Adobe Illustrator 18.1.1, SVG Export Plug-In . SVG Version: 6.00 Build 0)  -->
<svg version="1.1" id="Layer_1" xmlns="http://www.w3.org/2000/svg" xmlns:xlink="http://www.w3.org/1999/xlink" x="0px" y="0px"
	 viewBox="0 0 612 792" enable-background="new 0 0 612 792" xml:space="preserve">
<g id="_x31_7" opacity="0.4">
	<g opacity="0.6">
		<g>
			<path fill="#008FC4" d="M985.9,762.9c1.2-19.7,2-39.6,2.6-59.7c3-114.9,19.8-226.9,32.3-341.5c12.5-118.2-26-261.7-147.5-307
				c-59-21.8-118.9-0.7-169.2,36.8c-8,5.3-19.3,6.2-23.8-2.6c-18.8-34.7,2-70.7,26.8-97.9c-3.9,0-7.8,0-11.7,0
				c-4.3,5.5-8.5,11.3-12.5,17.5c-20.2,29.8-30.9,65.7-14.2,99c4.3,9.6,19.2,18.4,28.1,7.9c51.1-59.4,133-85.8,204.4-42.7
				c110.9,65.6,128.4,201.1,111.5,316.6c-17.7,118-33.6,231.9-35.2,349.4c-0.8,23.7-2.1,47.1-3.9,70.4c0,0.3,0,0.5,0,0.7
				c3,0,5.9,0,8.9-0.1C983.8,794.1,985,778.6,985.9,762.9z"/>
			<path fill="#008FC4" d="M961.5,760.9c0.8-18.9,1.4-37.9,2.2-57.3c1.7-43,4.5-84.3,11.6-127.1c29.2-175.1,95.6-426.2-109.5-511
				c-65.1-27.1-132.9,16.7-159.4,79.8c-2.6,6-10.5,10.4-18.4,9.6c-40.5-5.1-50.2-53.2-43.9-87.4c5.7-29.4,17.5-54.4,33.5-76.5
				c-2.2,0-4.5,0-6.6,0c-15.9,18.9-27.1,40.9-33,65.2c-9.9,39.4-2.8,82.3,28.9,109.4c8.9,7.1,18.5,12.4,30,11.4
				c12.4-1.7,20.2-12.2,22.1-23.7c9.7-45.6,39.7-81.4,85.4-88.5c31.7-4.3,61.6,0,89.8,15.6c124.1,73.3,125.7,225.7,99.1,353.4
				c-21.2,102.4-35.4,197.8-37.6,298.5c-0.4,23-1.4,45.9-3.4,68.9c-0.3,2.9-0.5,5.8-0.8,8.7c2.4,0,4.6,0,7,0
				C959.6,793.5,960.7,777.2,961.5,760.9z"/>
			<path fill="#008FC4" d="M937.3,807.7c1.6-18.9,2.6-37.9,2.9-56.6c0.1-61.2,1.1-121.6,15.2-183.7c35.5-161,109.7-365-58.4-476.8
				c-28.1-19.2-60.9-24.3-94.2-18.3c-43.1,8.8-66.1,49.2-60.9,91.1c1.6,16.7-10.8,36-29.2,38.6c-30.8,3.5-55.5-17.5-72.2-41.9
				c-19.3-29.8-23.8-63.9-14.9-98.1c6.7-26.4,18.1-49.8,32.6-71c-2,0-3.9,0-5.9,0c-15.9,20.8-27.3,42.7-33.6,68.7
				c-14.2,60.5,10.4,129.5,70.2,152.2c19.3,6.8,45,6,58.1-12.4c17.7-24.4,1.8-52.6,8.9-77c15.9-54.3,86.4-58.8,129.5-34.3
				c124.1,67.3,123,224.8,93.8,348.2c-23.9,98.8-46.9,193.5-46.7,293c-0.4,22.5-0.9,44.3-2.4,66.1c-0.3,4.9-0.7,9.7-1.2,14.6
				c2.6,0,5.4,0,8,0C937.1,809.3,937.1,808.5,937.3,807.7z"/>
			<path fill="#008FC4" d="M917.6,767.1c-9.1-122.4,30.6-235.3,58.1-357c22.2-97.9,22.3-203.9-47.2-281.7
				c-28-31.5-69.4-54.3-114.3-43.8c-21,5.3-45,20.9-40.5,42.8c7.1,35.1,15.8,77-19.5,99c-48.5,29.7-100.4-7.8-125.9-48.9
				C586.9,111.9,602.5,47.4,639.4-9c-2.2,0-4.5,0-6.7,0c-32.3,51.4-46.8,110.7-21.6,169.9c21.2,49.8,72.2,94.5,131.2,82.1
				c31.8-7,60.9-34.2,56.5-68.3c-3.5-22.7-26.4-42.8-9.6-66.5c13.3-19.2,35.4-22.7,56.4-20.1c37.9,5.1,71.2,25.4,93.2,57.7
				c94.9,141.7,23.4,295.7-14.6,440.2c-15.1,58.8-15.1,115.5-15.6,173.9c-0.1,15.4-0.8,30.9-1.8,46.1c-0.1,1.4-0.3,2.8-0.4,4.2
				c2.8,0,5.7,0,8.4,0C916.2,795.8,917.2,781.5,917.6,767.1z"/>
			<path fill="#008FC4" d="M894.4,803.4c0.8-14.6,0.9-29,0.8-43.5c-11.3-128.4,41.7-244.7,73.1-370.6
				C994,282.5,979.2,132.8,857.7,98.8c-11.4-3.3-23.8-1.6-34.3,2.8c-15,7.1-25.6,24.6-14.2,39.4c15.8,20.1,24.6,45.5,12.2,69.1
				c-15,28.9-45.9,48.1-77.5,51.7c-93.5,9.7-166.4-90.8-153.9-179.3c5-33.6,17.9-63.7,35.1-91.5c-2,0-3.9,0-5.8,0
				c-15.5,27.1-26.8,56.8-32.7,87.9c-16,82.4,35.8,157.5,109.7,188.1c56.1,23.5,121.3-11.4,145.2-63.1
				c11.4-25.5-15.8-47.3-24.6-71.8c-4.5-12.4,7.9-24.6,20.2-27.2c46.7-7.9,83.6,27.1,104.6,64.7c49.2,87.4,34,186.4,5.8,277.3
				c-31.8,103.3-68,204.8-60.3,312.4c0.3,14.3,0.4,28.4-0.4,42.5c-0.1,2.9-0.4,5.7-0.5,8.5c2.6,0,5.1,0,7.8,0
				C894.2,808,894.3,805.6,894.4,803.4z"/>
			<path fill="#008FC4" d="M874.2,795c-0.8-65.7-5.1-131.4,14.3-196.1c34.6-117.4,92.8-227.6,73.6-352.8
				c-7.9-51.7-32.5-98.8-78.2-125.9c-9.7-5.3-20.2-6.2-30.8-3.5c-9.7,2.8-14.2,14.1-12.4,21.9c11.3,39.4,41.1,80.6,18.3,120
				c-1.8,2.8-14.2,0.1-22.1,2.8c-39.7,14.1-77.5,38.6-121.6,27.2c-62.4-15.8-110.9-65.7-131-125.1C562.7,103.2,579.9,43.7,610.9-9
				c-1.8,0-3.5,0-5.4,0c-31.4,53.2-46.5,115.8-27.3,176c31.5,97,139.7,171.3,241.1,115.3c26.5-13.9,28.3,25.5,23.8,44.7
				c42.3-54.3,27.5-124.2,10.8-187.2c-2.6-9.6,12.4-14.9,22.9-13.1c10.5,2.6,20.2,7,28.1,14.9c67.7,67.3,65.8,167.8,41.9,253.7
				c-38,133.9-97.9,260-79.6,399.6c-0.1,5.3-0.4,10.5-0.8,15.6c2.4,0,4.9,0,7.2,0C873.9,805.2,874,800.1,874.2,795z"/>
			<path fill="#008FC4" d="M854.3,789.2c-3.2-70.8-5.8-141.8,19.8-210c35.4-94.6,79.5-187.4,79.6-288.9
				c-0.8-47.2-12.2-93.6-44.7-131.2c-5.3-6-14.1-11.3-22.9-10.4c-5.5,0-9.7,5.3-8.9,10.5c21.9,131.3-50.5,261.7-172.8,309
				c49.4-37.9,112.9-81.5,116.5-147.2c0.9-8-15-9.7-23.8-7.1c-103,28-192.7-49.7-225.3-139.8c-23-62.7-5.1-126.8,25.9-183.1
				c-1.7,0-3.3,0-5,0c-31.4,53.5-45.6,118.7-26.9,179.5c28.8,92.7,114.1,189,222.7,153.9c8.9-2.6,28.1-3.5,24.7,9.6
				c-25.6,93.7-121.6,143.7-215,163c-3.7,0.9-8.9,0-11.6,3.5c172.6,3.4,316.2-160.4,300.6-331c0-2.8,2.6-6.3,5.3-7.1
				c7.1-1.7,13.1,1.8,17.6,7.1c52.7,64.7,45.5,149.6,23.4,223c-40.6,133-106.9,258.1-87.3,399.2c0,6.2-0.1,12.4-0.5,18.7
				c2.6,0,5.3,0,7.9,0C854.1,803.3,854.3,796.2,854.3,789.2z"/>
			<path fill="#008FC4" d="M832.1,792.8c-1.2-57.4-6.3-115.1,11.3-172c24.8-80.6,60.1-153.3,84-234.6c16-53.5,19.5-109.4-0.7-161.9
				c-2.6-8.8-9.7-25.2-20.2-19.2c-7.1,4.3-8.1,13.1-8.9,21c-15,104.9-79.4,193.3-171.9,245.9c-88.1,49.2-189.4,47.3-284.4,32.6
				c4.5-5.4,11.6-7.1,17.6-7.1c96.9-7.8,201.6,1.7,280.1-69.3c22.9-20.1,55.5-44.7,52.8-77c-48.4-5.3-102.1,1.8-144.3-34
				C549.8,232.7,522.9,98.9,582.3-9c-0.9,0-1.7,0-2.6,0c-62.6,103-32.2,239.9,53.8,327.8C673.7,359.9,731,357.3,783,359
				c-6.3,52.4-64.4,84.9-109.4,105.9c-67,31.5-140.1,23.7-210.6,24.6c-21,0.9-49.2,4.5-58.1,27.2c96.1-3.5,195.4,13,288-25.6
				c109.2-45.7,179.9-143.7,213.5-255.8c0.9-4.5,7.9-11.4,9.7-7.1c37.9,66.5,14.9,145.2-11.7,211c-46.8,113.7-98.1,229.2-79.1,353.3
				c0.1,5.9,0,12-0.3,18c2.4,0,4.6,0,7,0C832.1,804.6,832.2,798.7,832.1,792.8z"/>
			<path fill="#008FC4" d="M506.9,524.2c-14.9,0.1-29.6,0.8-44,2.8C477.5,525.7,492.2,524.9,506.9,524.2z"/>
			<path fill="#008FC4" d="M812,793.4c-12.2-92.8,5.5-183,44.4-267.9c34.6-74.5,75-149.7,62.8-234.6c-0.9-8.7-9.6-13.9-14.1-6
				c-57.4,113-150.9,207.5-281.4,230.4c-39.4,6.6-78.3,7.2-116.8,8.9c26.4-0.3,53.2,0.9,78.7-1.1c134.7-10.5,241.3-94.6,312.8-208.5
				c1.7-3.4,8.7-11.3,10.5-6c14.1,41.9-1.8,84.8-17.7,124.2c-47.6,115.5-113,229.4-86.1,357.6c0.3,6.7,0.1,13.3-0.3,20
				c2.2,0,4.5,0,6.8,0C812,804.7,812.1,799.1,812,793.4z"/>
			<path fill="#008FC4" d="M380.9,514.5c8-18.4,30-27.1,49.4-28c91.6-5.3,186.6,13.8,271.3-40.5c23.9-15.6,45-31.5,59.9-56
				c3.7-6.2,7.1-19.3-3.4-18.4C634,388.3,562.9,276.5,541,169.6C527.7,105.7,544.5,45.9,572-9c-1.3,0-2.6,0-3.9,0
				c-33,62.3-46.9,132.2-28.8,201.2c26.3,97.3,92.3,196.9,204.9,188.1c11.6-0.9,14.2,11.3,7.1,19.2
				c-45.7,56.1-116.2,78.1-184.9,84.3C510,488.2,451.9,470,398.1,491c-28.1,10.5-38.8,47.3-25.6,72.7c1.8,2.5,8.1-0.9,11.6-3.5
				c23.7-20.4,50.6-29.2,78.9-33.1c-28.9,2.6-57.8,7.4-86.5,17.3C369.3,546.8,376.4,524.1,380.9,514.5z"/>
			<path fill="#008FC4" d="M614.7,473c43.1-9.6,83.6-25.4,112.8-59.5c4.3-5.3,10.6-17.5,0.9-19.2c-53-9.6-104-20.9-138.3-65.5
				C513.5,227.8,505.8,100.5,556.4-9c-0.5,0-1.1,0-1.6,0c-52,98.3-48.1,219.1,10.8,317.8c35.1,57.7,97.5,73.5,153.9,97
				c10.5,4.3-8.9,20.9-19.5,28c-39.7,28.1-82.8,40.4-129.5,43.9c-36.9,2.2-73.5-0.9-110.4-0.7c3.4,0.1,6.7,0.3,10.1,0.4
				C518.6,480.1,565.4,484.4,614.7,473z"/>
			<path fill="#008FC4" d="M460.2,477c-11.2-0.3-22.7-0.1-33.8,1.4c3.4-0.3,6.8-0.5,10.3-0.7C444.6,477.3,452.4,477.2,460.2,477z"/>
			<path fill="#008FC4" d="M789,810.5c0.7-14.9,0.5-29.7-0.3-44.7c-0.3-26.2-1.2-51.4-2-77.7c-0.7-77,48.8-142,76.1-211.9
				c14.2-35.9,31.8-71.9,30.1-110.3c0-8.8-11.3-4.3-15.8,0C818.3,431.6,753,486.8,667.6,512.3c-65.3,19.3-131.3,15-198.2,23.8
				c-36.1,5.3-68.6,20.1-92.5,49.9c-3.5,4.3-11.6,1.7-15-3.5c-13.9-23.5-6.8-51.5,8.9-73.5c13.8-19.5,33.9-27.5,55.7-30.5
				c-20.8,1.7-42.2,6.8-56.6,24.8c-19.5,25.4-23.8,61.2-8,89.2c5.3,8.7,20.2,9.6,25.5,0.8c21.2-32.3,51.1-53.4,88.1-54.3
				c144.4-0.9,285.3-36.9,390.2-145.5c3.5-2.6,12.4-4.3,12.4,1.7c-6.3,89.1-69.8,159.3-94.5,245.9C771,685,783.4,728,781,770.7
				c0.8,13.3,0.9,26.5,0.4,39.8C783.9,810.5,786.5,810.5,789,810.5z"/>
			<path fill="#008FC4" d="M598,470.5c6-0.9,12-2.1,17.7-3.7C610,468.1,603.9,469.4,598,470.5z"/>
			<path fill="#008FC4" d="M350,584.6c-1.1-3.7-2.1-7.5-2.9-11.3C347.8,577.1,348.8,580.9,350,584.6z"/>
			<path fill="#008FC4" d="M765.9,784.7c0.4-26.4-3.2-51.8-4.9-77.2c-6-80.4,46.9-147.9,76.9-220.5c5.4-13.9,13.3-28.1,10.6-43.8
				c-0.8-5.3-7.1-6.2-10.5-3.5c-107.5,74.4-222.8,99.9-347,104.4c-38.6,1.7-74,22.7-92.5,59.5c-4.5,7.9-15.8,12.2-25.5,7.9
				c-9.6-4.3-16.6-12.2-21-21.8c-0.7-1.7-1.3-3.4-2-5.1c1.2,3.8,2.4,7.6,3.8,11.4c6.2,18.4,30.8,32.3,43.1,17.5
				c30-36.8,66.1-66.6,114.5-68.3c98.7-3.5,194.7-20.4,283.6-71.1c8.7-5.1,26.3-15.8,30.8-4.3c8.9,20.2-6,41.3-15,61.4
				c-23.8,57.7-67,112-60.1,177.7c2.6,26.3,7,51.5,6.7,77.7c0.4,8,0.4,16,0.1,24.1c2.8,0,5.7,0,8.4,0
				C766.3,802,766.3,793.3,765.9,784.7z"/>
			<path fill="#008FC4" d="M697.4,410.1c-58.1-15.6-110-43.5-141.7-96.1C495.4,213,497.9,95,543.6-9c-1.1,0-2.1,0-3.2,0
				c-28.4,63.9-43.1,131.4-34.8,202.3c11.2,105.9,81.6,191.6,181.9,224.8c1.1,0,2.6,2.6,1.8,4.3c-8.8,25.5-37.9,32.5-60.7,40.4
				c-4.2,1.6-8.5,2.9-12.9,4.1c28.8-6.6,55.6-16.3,78.1-36.5C699.2,425,707.1,412.8,697.4,410.1z"/>
			<path fill="#008FC4" d="M361.8,506.6c16.8-25.4,46.7-30.8,74-32.5c52.8-1.8,103.8,6.8,157.6-2.8c1.6-0.3,3-0.5,4.6-0.9
				c-17.1,2.6-34.6,3.2-52,3.8c-62.6,2.8-142.6-24.3-187.6,34.3c-15.1,18.8-16.2,42.1-11.3,64.7
				C343.2,550.8,349.2,527.1,361.8,506.6z"/>
			<path fill="#008FC4" d="M734.1,692.1c1.8-64.7,41.5-118.2,66.2-176.8c4.3-10.4-0.9-23.5-14.1-19.2
				c-69.7,23.7-137.5,49.9-210.6,50.9c-63.5,0.9-128.7,12.5-166.5,72.8c-7.1,11.4-26.5,10.6-39.7,3.5c-10.5-5.3-15.8-14.9-20.2-25.4
				c-16.7-46.3-6-111.1,50.3-124.2c51.9-11.6,100.3,0.8,151.4-3.7c42.3-3.7,90.8-3.7,120.8-39.6c2.6-4.3,0-10.6-4.5-11.4
				c-48.2-17.5-89.6-42.7-120.4-86.5C473.3,226.7,483.7,99.8,529.8-9c-1.8,0-3.8,0-5.7,0c-71.8,155.6-45.1,360.4,128.4,429
				c9.7,4.3,9.7,15,1.8,21c-74.1,46.4-158.6,19.3-238.7,27.3c-31.8,3.5-59.9,22.9-69.7,53.5c-9.7,33.3-12.4,74.4,16.7,99.8
				c15.8,13.9,41.3,14.7,55.5-0.9c24.7-28.1,49.4-56.9,87.3-61.4c88.9-9.7,174.3-20.2,260.6-45.7c5.3-1.8,15,1.7,13.1,6
				c-38.8,95.2-65.2,189.5-49.4,290.9c3.7,0,7.2,0,10.9,0C739.2,770.8,733.1,731.5,734.1,692.1z"/>
			<path fill="#008FC4" d="M745.4,571.6c4.5-8,7.9-16.7,4.5-25.5c-5.3-13.1-23.7-8.7-36-6c-65.1,13-125,18.4-189.3,24.6
				c-45,3.5-69.7,39.4-103,65.7c-16.7,13.9-44,12.1-58.1-3.5c-30.8-33.3-37.7-85.6-12.2-124.2c41.4-62.3,120.7-32.5,181.4-36.9
				c36.1-3.5,73.1-2.6,105.7-23.7c3.7-3.5,6.3-10.6,1.8-12.4C472.1,350.2,447.1,150,512.1-9c-1.6,0-3.2,0-4.7,0
				c-66.1,158-42.2,356.2,122.5,438.7c-1.8,29.7-45.9,30.5-69.7,33.3c-65.3,8-133-20.8-192.9,16.8c-22.9,13.9-32.6,41.1-33.5,66.5
				c-0.8,34,11.4,72.6,42.2,91c20.2,12.2,45.9,4.2,61.6-11.4c30.9-32.3,66.1-57.8,111.1-59.5c51.9-1.8,103-8.8,155.9-17.6
				c11.4-1.7,34.4,0,28.1,13.9c-34.2,79.6-50.2,164-32.2,247.8c4.2,0,8.3,0,12.5,0c-0.4-12.7,0.1-26.3-3.9-38.4
				C685.3,701.1,715.4,634.6,745.4,571.6z"/>
			<path fill="#008FC4" d="M611.2,436.6c3.5-6-2.6-12.2-7.9-14.9C445.7,330.2,439.7,143.9,497.1-9c-2,0-3.9,0-5.9,0
				c-56.5,150.5-52,334.6,101.5,429.1c5.3,3.4,12.4,10.4,9.7,13.9c-10.1,13.5-23.8,20.6-39.4,24.1
				C582,456.7,601.6,453.1,611.2,436.6z"/>
			<path fill="#008FC4" d="M562.9,458.1c-7.1,0.5-14.1,0.8-20.5,1.2c-8.1,0.8-16.4,1.1-24.6,1.1C533.5,461.3,549,461.1,562.9,458.1z
				"/>
			<path fill="#008FC4" d="M705.2,587.8c1.8-5.3,0-11.4-3.4-13.1c-53.6-19.2-111.9-0.8-167.3,3.7c-37.9,3.5-59,33.3-89,54.3
				c-31.8,21.9-77.5,20.2-96.9-13.9c-12.2-20.5-18.4-45.6-17.6-69.5c-1.7,21.9,2.9,44.3,13.4,64.4c21,41.1,77.4,48.1,110,17.5
				c60.9-55.3,140.9-59.7,217.5-52.7c10.6,1.7,18.5,12.2,14.1,22.7c-25.5,56.9-43.2,120-22.3,181c3,9.3,4.7,18.8,5.7,28.1
				c3.9,0,7.9,0,11.7,0c-2-24.1-8.9-46.9-13.1-72C658.4,683.3,685.7,636.1,705.2,587.8z"/>
			<path fill="#008FC4" d="M517.9,460.4c-23.4-1.4-47.4-5-67.8-4.3c-32.5,0.8-68.2,2.6-91.3,27.2c5.7-5.3,12.4-9.7,20-13.3
				C422.8,449.8,470.9,460.1,517.9,460.4z"/>
			<path fill="#008FC4" d="M358.7,483.2c-18.1,16.6-26.9,40.7-27.7,66c1.7-21.8,9.6-43.2,24.1-61.6
				C356.2,486,357.5,484.7,358.7,483.2z"/>
			<path fill="#008FC4" d="M342.7,496.4c14.2-26.2,40.6-39.3,69.7-42.8c55.5-6.3,113.6,9.5,166.4-11.6c5.3-1.8,7.9-8.8,3.4-12.4
				C436.6,322,426.9,144.8,480-9c-1.6,0-3.2,0-4.7,0c-49.6,148.8-45.3,321.2,90.3,429c6,5.3,12.2,15.8,3.4,20.1
				c-38.8,21.8-85.4,7.1-128.5,8.8c-31.7,0.8-65.2,3.5-88.1,28c-35.6,37.3-36.3,94.4-10.3,136.4
				C322.3,577.6,323.5,532.9,342.7,496.4z"/>
			<path fill="#008FC4" d="M653.4,616.8c4.5-11.3-6.2-20.9-17.6-23.5c-39.6-6-80-6.8-115.3,11.6c-44.3,22.7-102.4,67.7-148,41.4
				c1.4,1.1,2.9,2,4.3,3c17.6,11.4,38,9.6,56.4,3.5c36.9-14.1,70.3-34.2,107.4-47.3c28.1-9.6,64.3-15,89.8,6
				c5.3,4.5,5.3,12.4,2.6,18.4c-18.7,55.2-26.7,116.5-3.8,170.7c1.3,3.2,2.4,6.3,3.3,9.5c4.7,0,9.6,0,14.3,0
				c-1.3-6.8-3.3-13.5-5.9-20.2C619.8,732.3,632.1,672.8,653.4,616.8z"/>
			<path fill="#008FC4" d="M342.1,613.3c2.9,5.3,6.3,10.4,10.1,15.1c6.4,7.9,13.1,13.7,20.2,17.7C360.1,637.3,349.9,626,342.1,613.3
				z"/>
			<path fill="#008FC4" d="M599.5,645.9c6.2-23.8-21.2-33.4-41.4-29.8c-66.9,14.1-137.4,73.6-199,24.6
				c-33.4-26.3-40.4-71.8-32.5-113.7c6.3-34,27.5-63,59.1-73.5c44-15,88.9,0,133.8-7.1c11.6-0.9,27.3-1.7,32.6-14.1
				c2.6-7.9-3.5-14.9-8.8-20.1C422.8,300.1,422.2,137.3,464.9-9c-1.6,0-3,0-4.6,0c-21.2,69.3-34.8,140.1-26.8,214
				c7.8,82.3,51.8,148.7,104.5,210.8c4.5,5.1,7.1,12.2,2.6,17.5c-6,6.2-15,7.9-22.9,8.8c-62.4,5.3-148.8-17.3-181.4,50.9
				c-20.5,42.1-20.5,92.8,5.9,133c19.5,31.5,56.4,42.7,91.6,36.7c43.2-8,79.4-36.9,123.4-34.3c15.9,0.8,25.5,16.7,21.9,32.3
				c-10.5,42.1-15.1,83.2,3.9,122.9c2.6,8.8,4.9,17.6,6.8,26.4c5.5,0,11.2,0,16.7,0c-1.3-4.3-2.8-8.5-4.7-12.9
				C580,749.3,587.1,696.7,599.5,645.9z"/>
			<path fill="#008FC4" d="M366.4,453.5c43.1-25.5,90.7-12.4,137.4-17.6c12.4-0.8,27.3-11.3,17.6-22.7
				C410.1,292.3,410.1,136.4,447-9c-1.3,0-2.6,0-4.1,0c-19.1,71.8-32.7,144.7-21.6,222c9.6,73.6,47.3,131.2,86.9,193.3
				c9.7,14.9-2.6,27.1-17.6,28c-45.9,2.6-97.8-9.6-136.6,24.6c-15.6,13.5-25.4,30.6-30.6,49.2C330.7,485.9,344.6,466.3,366.4,453.5z
				"/>
			<path fill="#008FC4" d="M535.1,730.7c-5.1-25.2,23.9-68.2-10.4-74.3c-51.9-9.6-106.6,32.6-155.9-1.6
				c-24.6-15.8-37.7-39.4-45.6-66.5c-0.9-3.4-1.8-7-2.6-10.4c1.6,10.3,3.9,20.2,6.8,29.7c4.9,15.4,12.9,27.9,23.3,37.3
				c10.4,9.7,23,16.3,36.9,20.6c35.6,11.8,72.7,1.3,109.6,1.3c11.4-0.1,18.4,10.4,20.2,21.8c2.6,15.8-7.9,29.7-2.6,42.8
				c7,16.7,18.4,31.4,24.7,48.5c3.9,9.7,7.1,19.7,9.5,29.7c5,0,9.9,0,14.9,0c-2.1-9.6-4.9-18.9-8.1-28.3
				C550.1,764,539.5,749.1,535.1,730.7z"/>
			<path fill="#008FC4" d="M323.5,508.1c-7.1,22.1-7.6,46.7-2.8,69.9C316.9,554.6,317,530.3,323.5,508.1z"/>
			<path fill="#008FC4" d="M473.7,726c-5.3-7.9,0-18.4-5.3-26.3c-15-21.8-46.7-14.7-68.7-23.8c-19.2-5-37.1-12.2-51.1-28.5
				c-10.6-12.1-18.4-25-23.9-38.4c-5.5-13.4-8.7-27.3-10-41.5c-3-37.5,3.9-76.8,30.5-107.4C377.7,422.4,428,431.2,472,425
				c15-1.8,23.8-15.9,15-29.8c-50.1-77.8-79.9-160.1-79.8-249.3C407.8,93,419.3,42,432.2-9c-2.9,0-5.8,0-8.7,0
				c-6.6,27.9-12.2,55.9-16.2,85c-8.8,71-3.5,140,17.1,207.5c11.3,35,28,66.5,48.2,98.8c7.1,12.2,11.6,33.1-7.9,35.9
				c-38.8,6.2-80,2.6-111.9,29.8c-30.9,27.2-39.7,68.3-39.4,107.5c0.4,17.2,2.8,34.7,7.6,52.7c6.6,26.3,23,43.6,43.4,56.9
				c20.2,13.4,44.6,22.7,66.6,33.3c2.8,0.8,7.1,2.5,7.1,6c3.9,14.7,12.1,26.4,21.6,37.1c9.5,10.6,20.1,20.5,29.4,31.9
				c9.9,11.2,16.4,23.4,20.6,36.1c3.8,0,7.8,0,11.6,0c-4.2-13.3-10-26.2-17-38.6C495.6,754.8,484.2,741.6,473.7,726z"/>
			<path fill="#008FC4" d="M382.7,699.2c-9.7-11.4-21.2-19.3-31.7-29.8c-14.7-15.9-25.4-33.1-32.7-50.9
				c-7.4-17.7-11.3-36.3-12.4-55.1c-11.7-79.5,48.2-151.2,130.9-153.9c22.9,0,16.8-32.3,8-49C384.6,242.2,385.6,116.8,410.1-9
				c-1.8,0-3.5,0-5.4,0c-2.9,15-5.8,30.2-8.8,45.9c-23,119.1,4.2,228.4,42.7,337.8c2.6,7.9,0.8,20.1-7.1,22.7
				c-74.9,15.6-133.9,72.7-128.3,149.4c-0.5,17.3,0.9,35.2,4.7,53.6c11.4,52.6,45.7,90.2,83.6,125.1c28.3,27.2,62.8,48.2,79.1,84
				c4.9,0,9.6,0,14.5,0c-3.7-9.3-8.9-18.1-16.3-26.4C441.8,751.7,409.2,731.5,382.7,699.2z"/>
			<path fill="#008FC4" d="M300.2,613.7c-3.9-19.6-5.8-38.6-5.5-57.2c0.4-18.5,2.4-36.7,6.4-54c9.1-61.2,59.3-97.1,111.3-126
				c3.7-1.7,6.3-8.8,4.5-13.1C377.4,240.5,371.7,118.5,390-9c-2.6,0-5.1,0-7.8,0c-15.1,114.5-16,229.9,18.9,343.4
				c3.4,10.5,6,24.6-1.8,30.6c-64.4,44.7-107.5,104.2-108.8,179.1c-1.4,17-1.4,34.3,0.1,51.9c7.8,83.1,70.2,135.6,127.4,189.8
				c7.4,7.2,12.9,15.1,16.8,23.5c4.3,0,8.7,0,13,0c-3.5-7.6-8.4-14.9-15-21.7C380.1,734.5,315.8,693.4,300.2,613.7z"/>
			<path fill="#008FC4" d="M282.3,612.7c-2.8-17.6-3.8-35-3.5-52.2s2-34,4.7-50.7c8-58.1,38.8-108,81.1-149.2
				c15.9-14.1,18.5-34.2,13.3-54.3C352.2,199.9,357,95.2,367.2-9c-2.9,0-5.9,0-8.8,0c-8.5,103-13.4,205.4,8,312.8
				c2.6,9.6,1.8,19.2-2.6,27.1c-30,53.5-74.1,98.1-82.7,159.4c-4.1,19.2-7,38.6-8,58.1c-2.1,39,2.6,77.9,18.1,116.1
				c20.1,49.8,61.5,82.1,94.9,124.1c5.3,6.7,9.5,13.7,12.9,20.8c4.2,0,8.4,0,12.7,0c-4.9-10.9-12-21.3-21.3-30.4
				C341.2,731.6,292.8,683.7,282.3,612.7z"/>
			<path fill="#008FC4" d="M261.8,544.5c1.4-17.1,3.8-33.6,6.8-50.2c9.1-59.1,39-110.8,65.6-164.2c9.7-21,15-43,11.6-65.7
				c-14.7-92.8-8.8-183-3.3-273.4c-3.4,0-6.8,0-10.1,0c-4.3,96.3-6.6,191.5,1.7,289.2c1.1,9.6-1.8,19.2-5.3,28
				c-31,63.9-64.5,126.8-71.1,198.3c-2.5,18.4-3.7,36.8-3.5,55.1c0.5,54.8,14.6,108.3,52.2,157.9c21.3,28.3,44.4,58.2,57.4,89.9
				c5,0,9.9,0,14.9,0c-4.3-11.2-10.6-21.7-19.5-31.3C298.6,712.4,254.6,634.6,261.8,544.5z"/>
			<path fill="#008FC4" d="M244.7,580.8c-0.4-17.1,0.1-33.9,1.4-50.7c1.2-16.8,3.3-33.4,5.9-49.9c8.8-63.1,32.6-120.8,54.7-180.3
				c12.4-36,10.6-73.6,8-110.3C311,123.1,313.5,57.2,315.3-9c-3.4,0-6.8,0-10.1,0c-0.9,58.6-1.7,117.1,0,175.6
				c1.7,40.2,4.3,81.4-9.9,120.8c-20.5,59.4-41.7,118.9-49,181.4c-2.8,21.6-4.6,42.8-5,64.3c-2,85.3,17.3,168.6,77.2,243.4
				c8.4,10.3,14.2,21.3,17.7,32.9c3.2,0,6.3,0,9.5,0c-1.7-4.2-3.7-8.3-6.2-12.5C298.4,726.8,247.2,663.8,244.7,580.8z"/>
		</g>
		<g>
			<g>
				<polygon fill="#008FC4" points="-182.7,264.8 -161.7,234.8 -203.6,234.8 				"/>
			</g>
			<g>
				<path fill="#008FC4" d="M-116.7,282.5l21.8,21.3c4.3,3,8.8,5.8,13.3,8.1l-43.4-42.3C-122.6,274-119.7,278.3-116.7,282.5z"/>
				<path fill="#008FC4" d="M-133.8,245.3l77,75.2c2,0.4,4.1,0.7,6,0.9l-84.1-82C-134.5,241.4-134.2,243.2-133.8,245.3z"/>
				<path fill="#008FC4" d="M-28.8,322.3L-135.6,218c-0.1,1.4-0.1,3.2-0.3,4.6l102.4,99.9C-31.9,322.5-30.4,322.5-28.8,322.3z"/>
				<path fill="#008FC4" d="M-10.6,319.3l-122-118.9c-0.3,1.3-0.7,2.6-0.9,3.9l118.9,116.1C-13.4,320-12,319.7-10.6,319.3z"/>
				<path fill="#008FC4" d="M5,313.9l-132.1-128.8c-0.5,1.1-1.1,2.1-1.6,3.4L1.6,315.6C2.8,315,3.8,314.5,5,313.9z"/>
				<path fill="#008FC4" d="M18.7,306.8l-138.4-135c-0.7,0.9-1.3,2-1.8,3.2L15.5,308.8C16.6,308,17.6,307.5,18.7,306.8z"/>
				<path fill="#008FC4" d="M30.5,297.9l-141-137.7c-0.8,0.8-1.7,1.6-2.4,2.6L27.9,300C28.8,299.3,29.7,298.6,30.5,297.9z"/>
				<path fill="#008FC4" d="M40.9,287.4L-99.8,150c-0.8,0.7-1.8,1.4-2.6,2.4l141,137.5C39.3,289.1,40.2,288.2,40.9,287.4z"/>
				<path fill="#008FC4" d="M49.7,275.4L-87.4,141.5c-1.1,0.7-2.1,1.2-3.2,1.7l138.4,135C48.4,277.4,48.9,276.3,49.7,275.4z"/>
				<path fill="#008FC4" d="M56.6,261.8L-73.6,134.7c-1.1,0.4-2.2,1.1-3.4,1.4L55.1,264.9C55.6,263.9,56.3,262.8,56.6,261.8z"/>
				<path fill="#008FC4" d="M61.5,245.9L-57.4,129.8c-1.4,0.3-2.6,0.7-4.1,0.9l122,118.9C61,248.6,61.2,247.2,61.5,245.9z"/>
				<path fill="#008FC4" d="M63.9,227.5l-102.4-99.9c-1.7,0-3.2,0.1-4.7,0.3l107,104.4C63.7,230.6,63.7,229,63.9,227.5z"/>
				<path fill="#008FC4" d="M61.9,204.8l-77-75.2c-2-0.4-4.1-0.7-5.9-0.9l84.1,82C62.6,208.8,62.3,206.8,61.9,204.8z"/>
				<path fill="#008FC4" d="M44.7,167.6l-21.8-21.3c-4.3-3-8.8-5.8-13.3-8.1L53,180.5C50.6,176.2,47.8,171.9,44.7,167.6z"/>
			</g>
			<g>
				<ellipse fill="#008FC4" cx="-118.3" cy="595.5" rx="2" ry="1.8"/>
				<ellipse fill="#008FC4" cx="-118.3" cy="606.2" rx="2" ry="1.8"/>
				<ellipse fill="#008FC4" cx="-118.3" cy="617" rx="2" ry="1.8"/>
				<ellipse fill="#008FC4" cx="-118.3" cy="627.8" rx="2" ry="1.8"/>
				<ellipse fill="#008FC4" cx="-118.3" cy="638.6" rx="2" ry="1.8"/>
				<ellipse fill="#008FC4" cx="-118.3" cy="649.4" rx="2" ry="1.8"/>
				<ellipse fill="#008FC4" cx="-118.3" cy="660.3" rx="2" ry="1.8"/>
				<ellipse fill="#008FC4" cx="-118.3" cy="670.9" rx="2" ry="1.8"/>
				<ellipse fill="#008FC4" cx="-118.3" cy="681.7" rx="2" ry="1.8"/>
				<ellipse fill="#008FC4" cx="-107.1" cy="595.5" rx="2" ry="1.8"/>
				<path fill="#008FC4" d="M-107.1,604.4c-1.1,0-2,0.8-2,1.8c0,1.1,0.8,1.8,2,1.8c1.1,0,2-0.8,2-1.8
					C-105.4,605.2-106.2,604.4-107.1,604.4z"/>
				<path fill="#008FC4" d="M-107.1,615.2c-1.1,0-2,0.8-2,1.8c0,1.1,0.8,1.8,2,1.8c1.1,0,2-0.8,2-1.8
					C-105.4,616-106.2,615.2-107.1,615.2z"/>
				<path fill="#008FC4" d="M-107.1,626c-1.1,0-2,0.8-2,1.8c0,1.1,0.8,1.8,2,1.8c1.1,0,2-0.8,2-1.8
					C-105.4,626.8-106.2,626-107.1,626z"/>
				<path fill="#008FC4" d="M-107.1,636.7c-1.1,0-2,0.8-2,1.8c0,1.1,0.8,1.8,2,1.8c1.1,0,2-0.8,2-1.8
					C-105.4,637.7-106.2,636.7-107.1,636.7z"/>
				<path fill="#008FC4" d="M-107.1,647.5c-1.1,0-2,0.8-2,1.8c0,1.1,0.8,1.8,2,1.8c1.1,0,2-0.8,2-1.8
					C-105.4,648.3-106.2,647.5-107.1,647.5z"/>
				<path fill="#008FC4" d="M-107.1,658.3c-1.1,0-2,0.8-2,1.8c0,1.1,0.8,1.8,2,1.8c1.1,0,2-0.8,2-1.8
					C-105.4,659.1-106.2,658.3-107.1,658.3z"/>
				<path fill="#008FC4" d="M-107.1,669.2c-1.1,0-2,0.8-2,1.8c0,1.1,0.8,1.8,2,1.8c1.1,0,2-0.8,2-1.8
					C-105.4,670-106.2,669.2-107.1,669.2z"/>
				<path fill="#008FC4" d="M-107.1,679.9c-1.1,0-2,0.8-2,1.8c0,1.1,0.8,1.8,2,1.8c1.1,0,2-0.8,2-1.8
					C-105.1,680.6-106.2,679.9-107.1,679.9z"/>
				<ellipse fill="#008FC4" cx="-195.7" cy="595.5" rx="2" ry="1.8"/>
				<ellipse fill="#008FC4" cx="-195.7" cy="606.2" rx="2" ry="1.8"/>
				<ellipse fill="#008FC4" cx="-195.7" cy="617" rx="2" ry="1.8"/>
				<ellipse fill="#008FC4" cx="-195.7" cy="627.8" rx="2" ry="1.8"/>
				<ellipse fill="#008FC4" cx="-195.7" cy="638.6" rx="2" ry="1.8"/>
				<ellipse fill="#008FC4" cx="-195.7" cy="649.4" rx="2" ry="1.8"/>
				<ellipse fill="#008FC4" cx="-195.7" cy="660.3" rx="2" ry="1.8"/>
				<ellipse fill="#008FC4" cx="-195.7" cy="670.9" rx="2" ry="1.8"/>
				<ellipse fill="#008FC4" cx="-195.7" cy="681.7" rx="2" ry="1.8"/>
				<ellipse fill="#008FC4" cx="-184.7" cy="595.5" rx="2" ry="1.8"/>
				<ellipse fill="#008FC4" cx="-184.7" cy="606.2" rx="2" ry="1.8"/>
				<ellipse fill="#008FC4" cx="-184.7" cy="617" rx="2" ry="1.8"/>
				<ellipse fill="#008FC4" cx="-184.7" cy="627.8" rx="2" ry="1.8"/>
				<ellipse fill="#008FC4" cx="-184.7" cy="638.6" rx="2" ry="1.8"/>
				<ellipse fill="#008FC4" cx="-184.7" cy="649.4" rx="2" ry="1.8"/>
				<ellipse fill="#008FC4" cx="-184.7" cy="660.3" rx="2" ry="1.8"/>
				<ellipse fill="#008FC4" cx="-184.7" cy="670.9" rx="2" ry="1.8"/>
				<ellipse fill="#008FC4" cx="-184.7" cy="681.7" rx="2" ry="1.8"/>
				<ellipse fill="#008FC4" cx="-173.5" cy="595.5" rx="2" ry="1.8"/>
				<ellipse fill="#008FC4" cx="-173.5" cy="606.2" rx="2" ry="1.8"/>
				<ellipse fill="#008FC4" cx="-173.5" cy="617" rx="2" ry="1.8"/>
				<ellipse fill="#008FC4" cx="-173.5" cy="627.8" rx="2" ry="1.8"/>
				<ellipse fill="#008FC4" cx="-173.5" cy="638.6" rx="2" ry="1.8"/>
				<ellipse fill="#008FC4" cx="-173.5" cy="649.4" rx="2" ry="1.8"/>
				<ellipse fill="#008FC4" cx="-173.5" cy="660.3" rx="2" ry="1.8"/>
				<ellipse fill="#008FC4" cx="-173.5" cy="670.9" rx="2" ry="1.8"/>
				<ellipse fill="#008FC4" cx="-173.5" cy="681.7" rx="2" ry="1.8"/>
				<ellipse fill="#008FC4" cx="-162.6" cy="595.5" rx="2" ry="1.8"/>
				<ellipse fill="#008FC4" cx="-162.6" cy="606.2" rx="2" ry="1.8"/>
				<ellipse fill="#008FC4" cx="-162.6" cy="617" rx="2" ry="1.8"/>
				<ellipse fill="#008FC4" cx="-162.6" cy="627.8" rx="2" ry="1.8"/>
				<ellipse fill="#008FC4" cx="-162.6" cy="638.6" rx="2" ry="1.8"/>
				<ellipse fill="#008FC4" cx="-162.6" cy="649.4" rx="2" ry="1.8"/>
				<ellipse fill="#008FC4" cx="-162.6" cy="660.3" rx="2" ry="1.8"/>
				<ellipse fill="#008FC4" cx="-162.6" cy="670.9" rx="2" ry="1.8"/>
				<ellipse fill="#008FC4" cx="-162.6" cy="681.7" rx="2" ry="1.8"/>
				<path fill="#008FC4" d="M-151.4,593.6c-1.1,0-2,0.8-2,1.8c0,1.1,0.8,1.8,2,1.8c1.1,0,2-0.8,2-1.8
					C-149.4,594.4-150.4,593.6-151.4,593.6z"/>
				<path fill="#008FC4" d="M-151.4,604.4c-1.1,0-2,0.8-2,1.8c0,1.1,0.8,1.8,2,1.8c1.1,0,2-0.8,2-1.8
					C-149.4,605.2-150.4,604.4-151.4,604.4z"/>
				<path fill="#008FC4" d="M-151.4,615.2c-1.1,0-2,0.8-2,1.8c0,1.1,0.8,1.8,2,1.8c1.1,0,2-0.8,2-1.8
					C-149.4,616-150.4,615.2-151.4,615.2z"/>
				<path fill="#008FC4" d="M-151.4,626c-1.1,0-2,0.8-2,1.8c0,1.1,0.8,1.8,2,1.8c1.1,0,2-0.8,2-1.8
					C-149.4,626.8-150.4,626-151.4,626z"/>
				<path fill="#008FC4" d="M-151.4,636.7c-1.1,0-2,0.8-2,1.8c0,1.1,0.8,1.8,2,1.8c1.1,0,2-0.8,2-1.8
					C-149.4,637.5-150.4,636.7-151.4,636.7z"/>
				<path fill="#008FC4" d="M-151.4,647.5c-1.1,0-2,0.8-2,1.8c0,1.1,0.8,1.8,2,1.8c1.1,0,2-0.8,2-1.8
					C-149.4,648.3-150.4,647.5-151.4,647.5z"/>
				<path fill="#008FC4" d="M-151.4,658.3c-1.1,0-2,0.8-2,1.8c0,1.1,0.8,1.8,2,1.8c1.1,0,2-0.8,2-1.8
					C-149.4,659.1-150.4,658.3-151.4,658.3z"/>
				<path fill="#008FC4" d="M-151.4,669.2c-1.1,0-2,0.8-2,1.8c0,1.1,0.8,1.8,2,1.8c1.1,0,2-0.8,2-1.8
					C-149.4,670-150.4,669.2-151.4,669.2z"/>
				<path fill="#008FC4" d="M-151.4,679.9c-1.1,0-2,0.8-2,1.8c0,1.1,0.8,1.8,2,1.8c1.1,0,2-0.8,2-1.8
					C-149.4,680.6-150.4,679.9-151.4,679.9z"/>
				<path fill="#008FC4" d="M-140.4,593.6c-1.1,0-2,0.8-2,1.8c0,1.1,0.8,1.8,2,1.8c1.1,0,2-0.8,2-1.8
					C-138.5,594.4-139.3,593.6-140.4,593.6z"/>
				<path fill="#008FC4" d="M-140.4,604.4c-1.1,0-2,0.8-2,1.8c0,1.1,0.8,1.8,2,1.8c1.1,0,2-0.8,2-1.8
					C-138.5,605.2-139.3,604.4-140.4,604.4z"/>
				<path fill="#008FC4" d="M-140.4,615.2c-1.1,0-2,0.8-2,1.8c0,1.1,0.8,1.8,2,1.8c1.1,0,2-0.8,2-1.8
					C-138.5,616-139.3,615.2-140.4,615.2z"/>
				<path fill="#008FC4" d="M-140.4,626c-1.1,0-2,0.8-2,1.8c0,1.1,0.8,1.8,2,1.8c1.1,0,2-0.8,2-1.8
					C-138.5,626.8-139.3,626-140.4,626z"/>
				<path fill="#008FC4" d="M-140.4,636.7c-1.1,0-2,0.8-2,1.8c0,1.1,0.8,1.8,2,1.8c1.1,0,2-0.8,2-1.8
					C-138.5,637.7-139.3,636.7-140.4,636.7z"/>
				<path fill="#008FC4" d="M-140.4,647.5c-1.1,0-2,0.8-2,1.8c0,1.1,0.8,1.8,2,1.8c1.1,0,2-0.8,2-1.8
					C-138.5,648.3-139.3,647.5-140.4,647.5z"/>
				<path fill="#008FC4" d="M-140.4,658.3c-1.1,0-2,0.8-2,1.8c0,1.1,0.8,1.8,2,1.8c1.1,0,2-0.8,2-1.8
					C-138.5,659.1-139.3,658.3-140.4,658.3z"/>
				<path fill="#008FC4" d="M-140.4,669.2c-1.1,0-2,0.8-2,1.8c0,1.1,0.8,1.8,2,1.8c1.1,0,2-0.8,2-1.8
					C-138.5,670-139.3,669.2-140.4,669.2z"/>
				<path fill="#008FC4" d="M-140.4,679.9c-1.1,0-2,0.8-2,1.8c0,1.1,0.8,1.8,2,1.8c1.1,0,2-0.8,2-1.8
					C-138.4,680.6-139.3,679.9-140.4,679.9z"/>
				<path fill="#008FC4" d="M-129.3,593.6c-1.1,0-2,0.8-2,1.8c0,1.1,0.8,1.8,2,1.8c1.2,0,2-0.8,2-1.8
					C-127.4,594.4-128.3,593.6-129.3,593.6z"/>
				<path fill="#008FC4" d="M-129.3,604.4c-1.1,0-2,0.8-2,1.8c0,1.1,0.8,1.8,2,1.8c1.2,0,2-0.8,2-1.8
					C-127.4,605.2-128.3,604.4-129.3,604.4z"/>
				<path fill="#008FC4" d="M-129.3,615.2c-1.1,0-2,0.8-2,1.8c0,1.1,0.8,1.8,2,1.8c1.2,0,2-0.8,2-1.8
					C-127.4,616-128.3,615.2-129.3,615.2z"/>
				<path fill="#008FC4" d="M-129.3,626c-1.1,0-2,0.8-2,1.8c0,1.1,0.8,1.8,2,1.8c1.2,0,2-0.8,2-1.8
					C-127.4,626.8-128.3,626-129.3,626z"/>
				<path fill="#008FC4" d="M-129.3,636.7c-1.1,0-2,0.8-2,1.8c0,1.1,0.8,1.8,2,1.8c1.2,0,2-0.8,2-1.8
					C-127.4,637.5-128.3,636.7-129.3,636.7z"/>
				<path fill="#008FC4" d="M-129.3,647.5c-1.1,0-2,0.8-2,1.8c0,1.1,0.8,1.8,2,1.8c1.2,0,2-0.8,2-1.8
					C-127.4,648.3-128.3,647.5-129.3,647.5z"/>
				<path fill="#008FC4" d="M-129.3,658.3c-1.1,0-2,0.8-2,1.8c0,1.1,0.8,1.8,2,1.8c1.2,0,2-0.8,2-1.8
					C-127.4,659.1-128.3,658.3-129.3,658.3z"/>
				<path fill="#008FC4" d="M-129.3,669.2c-1.1,0-2,0.8-2,1.8c0,1.1,0.8,1.8,2,1.8c1.2,0,2-0.8,2-1.8
					C-127.4,670-128.3,669.2-129.3,669.2z"/>
				<path fill="#008FC4" d="M-129.3,679.9c-1.1,0-2,0.8-2,1.8c0,1.1,0.8,1.8,2,1.8c1.2,0,2-0.8,2-1.8
					C-127.4,680.6-128.3,679.9-129.3,679.9z"/>
			</g>
			<g>
				<polygon fill="#008FC4" points="198.2,180.4 198.2,169.1 209.8,169.1 209.8,165.7 198.2,165.7 198.2,154.5 194.9,154.5 
					194.9,165.7 183.2,165.7 183.2,169.1 194.9,169.1 194.9,180.4 				"/>
			</g>
			<g>
				<polygon fill="#008FC4" points="-107.5,476.5 -107.5,465.4 -95.8,465.4 -95.8,462.1 -107.5,462.1 -107.5,450.6 -110.8,450.6 
					-110.8,462.1 -122.2,462.1 -122.2,465.4 -110.8,465.4 -110.8,476.5 				"/>
			</g>
			<g>
				<polygon fill="#008FC4" points="214.9,647.1 223,639.1 231.3,647.1 233.7,644.8 225.4,636.7 233.7,628.9 231.3,626.4 223,634.4 
					214.9,626.4 212.5,628.9 220.7,636.7 212.5,644.8 				"/>
			</g>
			<g>
				<path fill="#008FC4" d="M158.6,317.6c-1.4,0.9-2.9,0.3-4.2-0.3c-1.1-0.5-2-0.8-2.5-0.4c-0.5,0.4-0.4,1.2-0.3,2.5
					c0.1,1.3,0.4,3-0.9,3.9c-1.4,0.9-2.9,0.3-4.2-0.3c-1.1-0.5-2-0.8-2.5-0.4c-0.5,0.4-0.4,1.2-0.3,2.5s0.4,3-0.9,3.9
					c-1.4,0.9-2.9,0.3-4.2-0.3c-1.1-0.5-2-0.8-2.5-0.4c-0.5,0.4-0.4,1.2-0.3,2.5c0.1,1.3,0.4,3-0.9,3.9c-1.3,0.9-2.9,0.3-4.2-0.3
					c-1.1-0.5-2-0.8-2.5-0.4c-0.5,0.4-0.4,1.2-0.3,2.5c0.1,1.3,0.4,3-0.9,3.9c-1.4,0.9-2.9,0.3-4.2-0.3c-1.1-0.5-2-0.8-2.5-0.4
					c-0.5,0.4-0.4,1.2-0.3,2.5s0.4,3-0.9,3.9c-1.4,0.9-2.9,0.3-4.2-0.3c-1.1-0.5-2-0.8-2.5-0.4l-0.9-1.3c1.4-0.9,2.9-0.3,4.2,0.3
					c1.1,0.5,2,0.8,2.5,0.4c0.5-0.4,0.4-1.2,0.3-2.5c-0.1-1.3-0.4-3,0.9-3.9c1.3-0.9,2.9-0.3,4.2,0.3c1.1,0.5,2,0.8,2.5,0.4
					c0.5-0.4,0.4-1.2,0.3-2.5c-0.1-1.3-0.4-3,0.9-3.9c1.4-0.9,2.9-0.3,4.2,0.3c1.1,0.5,2,0.8,2.5,0.4c0.5-0.4,0.4-1.2,0.3-2.5
					c-0.1-1.3-0.4-3,0.9-3.9c1.4-0.9,2.9-0.3,4.2,0.3c1.1,0.5,2,0.8,2.5,0.4c0.5-0.4,0.4-1.2,0.3-2.5c-0.1-1.3-0.4-3,0.9-3.9
					c1.3-0.9,2.9-0.3,4.2,0.3c1.1,0.5,2,0.8,2.5,0.4c0.5-0.4,0.4-1.2,0.3-2.5s-0.4-3,0.9-3.9c1.4-0.9,2.9-0.3,4.2,0.3
					c1.1,0.5,2,0.8,2.5,0.4c0.5-0.4,0.4-1.2,0.3-2.5c-0.1-1.3-0.4-3,0.9-3.9l0.9,1.3c-0.5,0.4-0.4,1.2-0.3,2.5
					C160,315,160.1,316.7,158.6,317.6z"/>
			</g>
			<g>
				<path fill="#008FC4" d="M60.9,612.6c-1.4,0.9-2.9,0.3-4.2-0.3c-1.1-0.5-2-0.8-2.5-0.4s-0.4,1.2-0.3,2.5s0.4,3-0.9,3.9
					s-2.9,0.3-4.2-0.3c-1.1-0.5-2-0.8-2.5-0.4c-0.5,0.4-0.4,1.2-0.3,2.5c0.1,1.3,0.4,3-0.9,3.9c-1.3,0.9-2.9,0.3-4.2-0.3
					c-1.1-0.5-2-0.8-2.5-0.4c-0.5,0.4-0.4,1.2-0.3,2.5c0.1,1.3,0.4,3-0.9,3.9c-1.3,0.9-2.9,0.3-4.2-0.3c-1.1-0.5-2-0.8-2.5-0.4
					c-0.5,0.4-0.4,1.2-0.3,2.5c0.1,1.3,0.4,3-0.9,3.9c-1.4,0.9-2.9,0.3-4.2-0.3c-1.1-0.5-2-0.8-2.5-0.4c-0.5,0.4-0.4,1.2-0.3,2.5
					c0.1,1.3,0.4,3-0.9,3.9c-1.4,0.9-2.9,0.3-4.2-0.3c-1.1-0.5-2-0.8-2.5-0.4l-0.9-1.3c1.4-0.9,2.9-0.3,4.2,0.3
					c1.1,0.5,2,0.8,2.5,0.4c0.5-0.4,0.4-1.2,0.3-2.5c-0.1-1.3-0.4-3,0.9-3.9c1.3-0.9,2.9-0.3,4.2,0.3c1.1,0.5,2,0.8,2.5,0.4
					c0.5-0.4,0.4-1.2,0.3-2.5c-0.1-1.3-0.4-3,0.9-3.9c1.4-0.9,2.9-0.3,4.2,0.3c1.1,0.5,2,0.8,2.5,0.4c0.5-0.4,0.4-1.2,0.3-2.5
					c-0.1-1.3-0.4-3,0.9-3.9c1.4-0.9,2.9-0.3,4.2,0.3c1.1,0.5,2,0.8,2.5,0.4c0.5-0.4,0.4-1.2,0.3-2.5c-0.1-1.3-0.4-3,0.9-3.9
					c1.4-0.9,2.9-0.3,4.2,0.3c1.1,0.5,2,0.8,2.5,0.4s0.4-1.2,0.3-2.5c-0.1-1.3-0.4-3,0.9-3.9c1.4-0.9,2.9-0.3,4.2,0.3
					c1.1,0.5,2,0.8,2.5,0.4s0.4-1.2,0.3-2.5s-0.4-3,0.9-3.9l0.9,1.3c-0.5,0.4-0.4,1.2-0.3,2.5C62.2,609.9,62.3,611.5,60.9,612.6z"/>
			</g>
			<g>
				<path fill="#008FC4" d="M-165.7,317.6c-1.4,0.9-2.9,0.3-4.2-0.3c-1.1-0.5-2-0.8-2.5-0.4c-0.5,0.4-0.4,1.2-0.3,2.5
					c0.1,1.3,0.4,3-0.9,3.9c-1.4,0.9-2.9,0.3-4.2-0.3c-1.1-0.5-2-0.8-2.5-0.4c-0.5,0.4-0.4,1.2-0.3,2.5c0.1,1.3,0.4,3-0.9,3.9
					c-1.4,0.9-2.9,0.3-4.2-0.3c-1.1-0.5-2-0.8-2.5-0.4c-0.5,0.4-0.4,1.2-0.3,2.5c0.1,1.3,0.4,3-0.9,3.9c-1.3,0.9-2.9,0.3-4.2-0.3
					c-1.1-0.5-2-0.8-2.5-0.4c-0.5,0.4-0.4,1.2-0.3,2.5c0.1,1.3,0.4,3-0.9,3.9c-1.4,0.9-2.9,0.3-4.2-0.3c-1.1-0.5-2-0.8-2.5-0.4
					c-0.5,0.4-0.4,1.2-0.3,2.5c0.1,1.3,0.4,3-0.9,3.9c-1.4,0.9-2.9,0.3-4.2-0.3c-1.1-0.5-2-0.8-2.5-0.4l-0.9-1.3
					c1.4-0.9,2.9-0.3,4.2,0.3c1.1,0.5,2,0.8,2.5,0.4c0.5-0.4,0.4-1.2,0.3-2.5c-0.1-1.3-0.4-3,0.9-3.9c1.3-0.9,2.9-0.3,4.2,0.3
					c1.1,0.5,2,0.8,2.5,0.4c0.5-0.4,0.4-1.2,0.3-2.5c-0.1-1.3-0.4-3,0.9-3.9c1.4-0.9,2.9-0.3,4.2,0.3c1.1,0.5,2,0.8,2.5,0.4
					c0.5-0.4,0.4-1.2,0.3-2.5c-0.1-1.3-0.4-3,0.9-3.9c1.4-0.9,2.9-0.3,4.2,0.3c1.1,0.5,2,0.8,2.5,0.4c0.5-0.4,0.4-1.2,0.3-2.5
					s-0.4-3,0.9-3.9c1.3-0.9,2.9-0.3,4.2,0.3c1.1,0.5,2,0.8,2.5,0.4c0.5-0.4,0.4-1.2,0.3-2.5c-0.1-1.3-0.4-3,0.9-3.9
					c1.4-0.9,2.9-0.3,4.2,0.3c1.1,0.5,2,0.8,2.5,0.4c0.5-0.4,0.4-1.2,0.3-2.5c-0.1-1.3-0.4-3,0.9-3.9l0.9,1.3
					c-0.5,0.4-0.4,1.2-0.3,2.5C-164.4,315-164.3,316.7-165.7,317.6z"/>
			</g>
		</g>
	</g>
</g>
<g id="Layer_1_1_" display="none">
</g>
</svg>
