<?xml version="1.0" encoding="utf-8"?>
<!-- Generator: Adobe Illustrator 18.1.1, SVG Export Plug-In . SVG Version: 6.00 Build 0)  -->
<svg version="1.1" id="Layer_1" xmlns="http://www.w3.org/2000/svg" xmlns:xlink="http://www.w3.org/1999/xlink" x="0px" y="0px"
	 viewBox="0 0 612 792" enable-background="new 0 0 612 792" xml:space="preserve">
<rect y="90" display="none" fill="#FFFFFF" width="612" height="612"/>
<g opacity="0.4">
	<path fill="#008FC4" d="M112.9-2.8c5.3,0,10,0,15.2,0H112.9z"/>
	<path fill="#008FC4" d="M-40.6,87c-16-18-31.9-42-51.2-59.2v26.6c15.9,13.9,31.9,27.2,49.9,43.9c20.6,18.5,55.8,57.1,51.7,96.9
		c-2.6,27.9-26.6,42.5-43.9,56.6C-53.4,267.1-68.6,283.8-74,313c-2,14.6-2,31.9-15.9,35.2c-0.7,0-1.3,0-2,0.7v11.3
		c2.6,0,5.3,0,7.9-0.7c14.6-4,15.2-18.6,16.7-32.6c2.6-34.5,11.3-49.9,31.3-67.1c23.2-19.9,57.9-33.9,52.5-78.4
		C11.2,142.8-18.1,112.1-40.6,87z"/>
	<path fill="#008FC4" d="M149.4-2.8c-22.5,2.6-46.5,2-71.8,0H39.8c26.6,3.4,52.5,6.6,79.7,6.6c19.9,0,37.3-2,53.2-6.6H149.4z"/>
	<path fill="#008FC4" d="M179.3-2.8C151.4,5.8,116.3,6.5,79,3.9c-19.3-1.3-37.9-4-57.2-6.6H-81.8c-5.3,2-9.3,4-9.3,7.9
		c-1.3,9.3,21.2,22.5,25.9,28.5c7.9,11.3,12,26.6,20.6,39.2c22.5,30.6,61.8,66.5,63.8,115.6c1.3,35.2-25.3,50.6-44.6,65.8
		c-14.1,11.3-29.3,24-35.3,42.6c-6,19.3,1.3,54.5-16.7,65.2c-5.3,2.6-10,3.3-15.2,2.6v7.9c6.6,0.7,12.6,0,19.3-2.6
		c18-8.6,13.9-30.6,15.9-54.5c2-25.3,13.3-37.9,26.6-50.6c20.6-19.3,55.8-35.2,57.2-71.1c1.3-45.9-31.9-77.8-45.9-111
		c-9.3-21.2,2-30.6,22.5-36.6c8.6-2.6,29.2-6,29.2-12c0.7-7.3-19.9-12-18-19.3c18.6-6,41.2-4,62.4-2.6c22.5,0.7,44.6,1.3,65.8-0.7
		c19.3-2,35.8-6.6,49.9-12.6h-13.3v-1.8H179.3z"/>
	<path fill="#008FC4" d="M198.6-2.8C192,0.6,185.3,3.9,178,6.5c-24.6,7.9-54.5,8.6-83.1,15.2c6.6,8.6,23.2,11.3,37.3,12
		c45.9,2.6,75.7-13.3,97.1-36.6h-30.6V-2.8z"/>
	<path fill="#008FC4" d="M248.4-2.8c-19.9,23.2-41.8,41.2-79.7,49.1c-24.6,5.3-57.2,4.7-86.4,6c-29.2,0.7-62.4-2-82.4,9.3
		s-4,36.6,3.3,51.2c13.3,25.3,36.6,71.8,19.3,105C7.2,249.1-33.3,257-48.1,289.6c-11.3,24.6,4,77.1-26.6,85.7c-6.6,2-12,2-17.3,0.7
		v5.3c10.7,3.3,21.9,2.6,30.6-4.7c16.5-13.9,12.6-35.2,12.6-58.5c0.7-55.8,52.5-59.8,75.1-95c16.7-26.6,5.3-61.8-4-86.4
		C17,122.8,7.7,105.5,8.4,91.6c2-27.2,49.1-24,78.4-25.3c33.2-1.3,61.8-5.3,85.1-12c37.9-12,62.4-31.9,83.1-56.6h-6.6V-2.8z"/>
	<path fill="#008FC4" d="M257.1-2.8c-19.9,25.3-42.5,46.5-77.1,59.2c-21.9,7.9-48.5,12.6-80.4,15.2c-25.9,2-66.5,0-77.8,15.9
		c-7.9,11.3,0.7,34.5,6.6,51.2c6,17.3,12.6,36.6,10.7,58.5c-4,57.2-74.4,57.2-83.1,109.6c-2,12,2,24.6,0.7,41.8
		c-1.3,20.6-13.9,38.6-35.2,39.9c-4.7,0-9.3-0.7-13.9-2v5.3c8.6,3.4,18,4,27.2,0.7c16.5-6,28.5-24.6,28.5-44.6
		c0.7-19.3-5.3-37.9,1.3-53.8c18.6-44.6,84.4-43.9,79.7-111.7C43,160,32.3,138.6,30.4,118c-0.7-4.7-0.7-11.3,0.7-15.2
		c7.9-25.9,64.5-20.6,93.7-25.3C189.9,67.6,229.1,37.6,261-2.3h-4v-0.5H257.1z"/>
	<path fill="#008FC4" d="M264.4-2.8c-19.3,24.6-39.2,45.9-69.8,62.4c-18,9.3-43.9,19.9-70.5,23.2c-35.8,4-83.8-0.7-85.1,35.2
		c-0.7,23.2,12.6,47.8,10.7,76.4c-0.7,13.3-3.3,23.3-10,33.2c-19.3,30-65.8,37.3-73.1,77.1c-3.3,15.9,4,32.6,2,49.1
		c-2,18-15.2,35.8-29.8,41.8c-10.7,4-21.2,3.3-30.6,0v5.3c5.3,2,10.7,3.4,16.7,3.4c25.9,0.7,51.2-25.9,51.9-53.8
		c0.7-23.3-7.9-39.2-0.7-56.6c11.3-26.6,47.2-35.2,65.8-58.5c7.9-10.7,13.9-23.3,15.2-39.2c2.6-27.2-9.3-48.5-6.6-73.8
		c4-35.2,57.2-30.6,89.8-36.6c26.6-4.7,45.2-15.2,63.8-27.2c27.2-17.3,45.9-38.6,65.2-61.8L264.4-2.8L264.4-2.8z"/>
	<path fill="#008FC4" d="M278.4-2.8h-6c-35.8,42.5-69.8,83.8-138.3,95c-31.9,5.3-68.4,5.3-75.7,31.3c-5.3,19.3,3.3,45.9,2.6,65.8
		c-0.7,22.5-7.3,40.5-21.2,54.5c-19.9,19.3-51.2,26.6-60.5,54.5c-5.3,16.7,5.3,33.9,2.6,55.8c-2.6,25.9-26.6,53.2-52.5,54.5
		c-8.6,0.7-15.2-0.7-21.2-3.3v4.7c5.3,2.6,11.3,4,18.6,4.7c17.3,0.7,30.6-9.3,42.5-21.9c10.7-11.3,21.9-26.6,22.5-43.9
		c0.7-21.2-11.3-35.2-3.3-53.2c10-23.2,35.2-29.8,54.5-45.9c8.6-7.3,15.2-15.9,19.3-25.3c13.3-28.5,2-58.5,5.3-88.3
		c4-36.6,62.4-33.9,93-42.5C212.6,79.7,245.8,33.8,277.1,0C277.1-1.5,277.7-2.1,278.4-2.8z"/>
	<path fill="#008FC4" d="M477.7-2.8c-18,6-35.8,12-53.2,18.6c-16.7,6-34.5,15.9-51.9,17.3c-4,0.7-12,0-15.2-1.3
		c-15.2-6.6-7.9-23.2-0.7-34.5h-16c-7.9,10-15.2,21.2-21.9,33.2c-3.3,6-11.3,19.9-22.5,17.3c-15.2-4,2-34.5,6-41.2c2-3.3,4-6,6-9.3
		H297C289,16.1,271.7,30.7,275.1,54c2.6,15.9,22.5,23.2,40.5,23.2c29.2-0.7,55.1-17.3,77.8-27.9c24-12,47.2-23.2,72.4-33.2
		c18.6-7.3,36.6-13.3,54.5-18.6C520.2-2.8,477.7-2.8,477.7-2.8z"/>
	<path fill="#008FC4" d="M376.7-2.8c0,1.3,0,2.6,0,4c1.3,5.3,10.7,7.3,19.3,6.6c18-1.3,32.6-5.3,49.1-10.7H376.7z"/>
	<path fill="#008FC4" d="M531.5-2.8c-51.2,15.9-99.7,35.2-142.8,58.5c-24,12.6-52.5,29.8-83.1,30.6c-18,0-32.6-7.9-37.3-19.9
		c-8.6-20.6,7.3-37.9,9.3-54.5c-9.3,2-14.6,9.9-19.9,15.2C239,45.8,224.4,63,201.9,80.4C187.3,91,172,97,150,100.9
		c-29.8,6-71.1,7.9-75.1,41.8c-2.6,25.9,4.7,53.8-3.4,77.1c-9.9,29.8-37.3,39.2-59.8,57.9c-4.7,4-11.3,9.3-14.6,15.2
		c-13.3,23.3,10,39.9,1.3,66.5c-5.3,18-24.6,41.8-41.8,52.5c-16.7,10.7-33.2,10-49.1,3.4v6c8.6,4,18,6.6,30,4.7
		c16.7-2,31.3-15.9,43.1-29.2c12-13.9,24.6-26.6,31.3-41.2c2-5.3,4-11.3,3.4-15.2c-0.7-11.3-9.3-19.3-10.7-30.6
		c-1.3-10.7,3.4-16.7,11.3-26.6c25.3-16.7,51.2-27.2,62.4-57.9c12.6-34.5-6-83.1,19.3-102.3c11.3-8.6,27.9-12,43.9-15.2
		c16.7-3.4,32.6-7.3,45.9-13.3c29.2-12.6,37.9-37.9,66.5-51.2c1.3,27.2,11.3,46.5,40.5,48.5c35.8,2.6,65.2-16.7,89.8-30.6
		c25.9-14.6,49.1-26.6,80.4-39.2c24.6-8.6,48.5-17.3,73.8-24.6h-6.8V-2.8z"/>
	<path fill="#008FC4" d="M568.8,61.1c-12.6,4-25.9,6-40.5,7.3c-27.2,3.4-57.2,5.3-89,5.3c-9.9,0-21.2,0-27.2-7.3
		c12.6-18,34.5-27.2,55.1-35.8c30.6-13.3,64.5-24,99-33.2h-7.3C522.3,8,486.5,19.2,453.2,34.6c-7.9,3.3-19.9,8.6-31.9,15.9
		c-7.3,4-25.9,15.2-24.6,23.2c1.3,7.9,31.9,7.9,45.9,7.9c50.6,0.7,109.6,2.6,146.9-12c39.2-15.9,78.4-29.8,116.4-45.2V13.8
		c-33.2,12-67.8,21.9-102.9,34.5C590.7,52.3,580,57.7,568.8,61.1z"/>
	<path fill="#008FC4" d="M677.7-2.8c-25.3,7.9-50.6,14.6-75.7,22.5C567.5,31.1,532.3,44.4,492.4,51c-13.3,2-27.9,5.3-41.2,0
		c4-9.3,15.2-13.3,24-17.3c33.2-15.2,70.5-26.6,108.3-36.6h-9.9c-31.3,8.6-61.1,18-89,28.5c-19.9,7.9-41.2,16.7-53.8,32.6
		c11.3,10,28.5,5.3,42.5,4.7c15.2-1.3,30.6-4,43.9-6c28.5-4.7,53.2-13.3,77.1-21.9C631.6,21.7,670.1,11.8,706-0.2v-2.6H677.7z"/>
	<path fill="#008FC4" d="M-46,100.9c-16.5-14.7-31.3-27.4-45.9-39.9V75c13.9,10,27.2,20.6,41.8,32.6c20.6,17.3,46.5,43.9,49.1,77.1
		c1.3,21.9-9.3,38.6-21.2,49.1c-19.3,15.9-42.5,28.5-54.5,51.9c-4.7,8.6-6.6,27.9-14.6,37.9v19.3c3.3-1.3,6.6-3.3,9.3-7.3
		c7.3-12.6,6-31.3,11.3-44.6c5.3-13.3,15.9-24,24.6-31.9c20.6-18,53.8-32.6,53.2-69.8C5.9,150.7-23.4,121.5-46,100.9z"/>
	<path fill="#008FC4" d="M-5.4,177.3c-4-19.3-15.9-37.3-27.9-50.6c-17.3-19.2-37.9-33.2-58.5-47.2v12c32.6,22.5,69.1,44.6,77.8,87.7
		c8.6,43.9-33.9,57.9-55.8,77.1c-6.6,6-12.6,13.3-18.6,21.9c-1.3,1.3-2,3.4-3.3,4.7v28.5c2.6-4.7,4-9.9,6-13.9
		c4.7-10.7,9.9-20.6,15.2-27.2C-48.6,241.8,3.9,227.9-5.4,177.3z"/>
	<path fill="#008FC4" d="M705.6,83c-39.9,18-74.4,40.5-108.3,63.8c30-29.8,66.5-52.5,108.3-71.1v-2.6
		c-50.6,22.5-94.3,51.9-128.9,89.8c27.9-12,51.2-33.2,78.4-49.1c16.7-9.3,33.2-18,50.6-25.9V83H705.6z"/>
	<path fill="#008FC4" d="M-17.4,180c-6.6-40-43.1-63.2-75.1-85.1v9.9c9.3,6.6,18,13.9,27.9,23.3c17.3,15.9,39.2,38.6,36,67.1
		c-2.6,23.3-25.3,33.2-41.8,44.6c-5.3,3.3-13.3,9.9-22.5,13.9V275c2-2,3.3-4,5.3-5.3c7.9-7.9,13.9-13.9,20.6-19.3
		C-44.7,232.4-10,220.6-17.4,180z"/>
	<path fill="#008FC4" d="M705.6,102.9c-35.2,16.7-65.2,38.6-96.4,59.8c27.9-26.6,59.8-47.8,96.4-65.2v-4.7
		c-46.5,21.2-86.4,51.2-119,87c39.9-24.6,75.1-54.5,119-75.1V102.9z"/>
	<path fill="#008FC4" d="M-34,174.7c-8.6-26.6-34.5-47.8-58.5-66.5v10c4.7,4,9.3,8.6,13.9,13.3c14.6,14.6,34.5,33.9,31.3,59.8
		c-2,16.7-25.3,32.6-43.9,31.9h-0.7v24.6c7.3-2.6,14.6-7.9,20.6-11.3c12-7.3,22.5-13.3,29.8-19.9C-32.7,207.3-28.6,189.9-34,174.7z"
		/>
	<path fill="#008FC4" d="M298.3,110.8c-4,12-15.2,20.6-25.3,28.5c-18.6,16.7-40.5,31.9-58.5,49.9c-9.3,9.3-17.3,19.9-27.2,25.9
		c-17.3,10-46.5,9.3-57.2-1.3c-12-11.3-19.3-50.6-9.3-68.4c12.6-22.5,59.2-28.5,85.7-39.2c10-4,20.6-14.6,29.8-15.2
		c11.3-0.7,19.9,5.3,31.3,9.3C279,104.9,290.3,104.2,298.3,110.8z M234.4,100.9c-18,6.6-33.9,13.3-54.5,19.9
		c-13.3,4.7-38.6,12-46.5,28.5c-10.7,22.5,6,51.9,26.6,52.5c14.6,0.7,28.5-7.3,38.6-14.6c21.9-14.6,40.5-27.2,61.8-44.6
		c5.3-4.7,27.9-18.6,25.3-28.5c-0.7-4-11.3-6.6-18-8.6c-11.3-3.4-21.2-6.6-31.3-5.3C236.5,100.9,235.1,100.9,234.4,100.9z"/>
	<path fill="#008FC4" d="M-79.9,132.7c-4-4-7.9-7.9-12-12v12.6c5.3,6,9.3,12.6,12,19.9c3.4,9.3,3.4,20.6-6,21.9c-2,0-4.7,0-6.6,0
		v40.5h0.7c19.3,3.4,38.6-12,39.9-28.5C-50,162.7-65.9,146.8-79.9,132.7z"/>
	<path fill="#008FC4" d="M-91.8,138.1V166c2,0,3.3-0.7,5.3-2C-79.2,158.7-85.8,146.8-91.8,138.1z"/>
	<path fill="#008FC4" d="M238.5,108.9c6.6-1.3,34.5,0.7,35.8,10c1.3,8.6-15.2,19.3-19.9,23.2c-17.3,13.3-32.6,22.5-53.8,31.3
		c-9.3,4-24.6,8.6-34.5,6.6c-9.9-2-18-13.9-15.2-25.3c3.4-13.3,25.3-23.2,37.9-27.9c7.3-2.6,15.9-6,24.6-8.6
		C221.8,114.2,229.1,110.2,238.5,108.9z M199.9,128.8c-9.3,4-29.2,13.3-26.6,25.3c1.3,6.6,9.9,8.6,20.6,7.9
		c13.9-1.3,27.2-6,41.2-13.9c8.6-4.7,29.8-16.7,27.9-26.6c-1.3-8.6-15.9-7.3-24-6.6C225.2,117.5,211.9,123.5,199.9,128.8z"/>
	<path fill="#008FC4" d="M235.1,131.4c-1.3,4-4.7,4.7-9.3,5.3C226.5,132.1,230.5,131.4,235.1,131.4z"/>
	<path fill="#008FC4" d="M705.6,674.4c-89-3.3-186.7-6-269.9-16.7c-14.6-2-31.9-6-43.1-2.6c-27.2,6.6-45.9,39.9-59.8,61.1
		c-15.9,24-31.3,51.2-57.2,63.2c-29.8,13.9-67.8,3.3-78.4-22.5c-7.9-19.3-4.7-45.2-0.7-67.1c3.4-21.9,6-47.8,7.9-68.4
		c2-21.9,4-47.2,9.3-67.1c10.7-37.9,38.6-65.2,51.2-101.6c12.6-37.3,24.6-75.1,45.2-107.6c6-9.9,29.2-34.5,27.2-51.2
		c-1.3-12-13.9-18-20.6-25.9c-6-6.6-17.3-18.6-14.6-33.2c3.3-15.9,28.5-20.6,50.6-20.6c46.5,0,85.7,15.2,126.9,2
		c8.6-2.6,16.7-7.3,24-11.3c6.6-4,16.7-7.9,17.3-16.7c-18.6-6-40.5-14.6-63.8-18.6c-51.9-8.6-101.6,3.4-140.2,19.3
		c-19.9,8.6-37.3,18.6-47.2,34.5c-7.3,12-12.6,25.3-18.6,37.3c-17.3,35.8-40.5,70.5-71.8,94.3c-21.2,15.9-47.2,28.5-73.1,37.9
		c-26.6,9.9-51.2,21.9-69.1,41.8c-20.6,22.5-26.6,50.6-17.3,84.4c7.9,27.9,21.9,55.8,34.5,76.5c13.9,23.2,31.9,42.5,46.5,65.2
		c7.3,10.7,14.6,21.9,21.2,33.9c6.6,11.3,15.9,24,15.2,39.2c-18,2.6-40.5-4-61.1,0C56.3,737.7,39,744.4,19,747
		c-21.9,2.6-43.1,1.3-63.1-4.7c-19.2-5.5-33.9-14.1-46.5-25.4v6.6c27.9,21.9,64.5,33.2,113.6,28.5c20.6-2,39.9-8.6,59.8-9.3
		c17.3-0.7,33.2,4,49.1,10c15.2,5.3,31.3,10,44.6,15.2c24.6,9.3,39.9,23.2,69.1,23.2c27.9,0,48.5-13.3,63.1-29.2
		c13.9-15.2,25.3-34.5,38.6-53.8c11.3-16.7,26.6-39.2,48.5-44.6c13.9-4,31.3,1.3,47.2,2.6c83.8,9.3,174.1,9.3,263.9,12v-4h-1.2
		V674.4z M168,721.6c-11.3,2-25.3-19.3-29.2-25.3c-8.6-12-16.7-25.3-21.2-32.6C85,613.2,55.1,588,34.4,530.2
		c-10-29.2-12.6-62.4,4-86.4c14.6-21.2,39.2-33.2,67.8-44.6c55.1-22.5,95.6-52.5,125-99c7.3-10.7,13.9-23.3,19.9-35.8
		c7.9-15.9,15.2-37.3,27.9-49.9c13.3-13.3,35.2-21.2,55.1-28.5c37.3-13.3,86.4-21.9,131-11.3c8.6,2,16.7,5.3,25.3,7.9
		c7.9,2.6,17.3,3.3,24.6,8.6c-1.3,7.9-10.7,12-18,15.9c-22.5,12-55.1,16.7-88.3,10c-17.3-3.4-39.2-7.9-63.1-7.3
		c-20.6,0.7-44.6,6-47.2,22.5c-2.6,15.9,7.3,25.9,13.9,33.2c6,7.3,18,16.7,18.6,27.9c1.3,16.7-18.6,39.2-25.3,49.1
		c-30,44.6-43.9,103.7-71.8,149.6c-9.3,15.2-19.3,30.6-25.3,49.1c-12,36.5-11.3,85.1-19.9,127.6C186,678.5,178.7,719.6,168,721.6z"
		/>
	<path fill="#008FC4" d="M505.6,195.3c-12,14.6-34.5,21.2-57.2,21.9c-18.6,0-35.8-5.3-53.2-9.3c-18-4-35.8-4.7-50.6-11.3
		c-1.3-3.4,5.3-6,9.3-7.9c28.5-12.6,75.1-15.9,111-7.3C480.3,184.6,495.7,188.6,505.6,195.3z M418.6,180c-15.9,0.7-36.5,4-42.5,12
		c6,7.9,19.3,9.9,31.9,13.9c15.9,4.7,31.9,9.3,51.2,7.9c15.2-1.3,33.9-6,39.9-17.3C479.7,186.6,447.1,179.3,418.6,180z"/>
	<path fill="#008FC4" d="M479,200.6c-10.7,12-47.2,8.6-53.2-5.3C441.1,188.6,466.4,192.5,479,200.6z"/>
	<path fill="#008FC4" d="M281,227.9c0,0,0.7-0.7,1.3-0.7c7.3,0.7,9.9,16.7,13.9,24c6.6,12,24,25.3,25.3,40.5
		c2,18-14.6,35.2-21.2,45.9c-27.2,42.5-44.6,87-70.5,131c-16.7,27.9-33.9,53.2-41.8,93c-3.4,17.3-5.3,37.9-10,57.9
		c-2.6,12-9.3,41.2-24,41.8c-17.3,1.3-30.6-25.3-37.3-35.2c-20.6-28.5-43.9-51.2-59.2-86.4c-7.3-16.7-13.9-37.3-13.9-59.2
		c0.7-35.8,26.6-55.1,53.8-67.8c27.2-12.6,57.2-27.9,78.4-43.1c35.2-25.3,57.9-62.4,79.7-102.9C261.7,254.4,268.3,230.5,281,227.9z
		 M257.1,269c-6,11.3-12.6,22.5-18,31.9c-26.6,45.2-59.2,74.4-105,100.3c-23.2,12.6-50.6,21.9-66.5,40.5
		c-7.3,8.6-15.9,26.6-13.9,49.1c4,45.9,35.2,83,59.8,111c6.6,7.9,18.6,25.9,33.2,24.6c14.6-1.3,19.9-25.3,24-39.2
		c4.7-17.3,7.9-35.8,12.6-50.6c9.9-31.3,27.9-57.9,43.9-82.4c25.3-39.2,43.9-81,69.1-120.3c7.9-12,21.2-24.6,19.3-43.9
		c-1.3-10.7-9.3-18-16.7-27.9c-5.3-7.3-12-24.6-19.9-24.6c-0.7,0-1.3,0.7-1.3,0.7C268.3,239.7,262.5,258.4,257.1,269z"/>
	<path fill="#008FC4" d="M492.3,227.9c3.3,0.7,6,0,0,6.6c-7.3,7.9-15.9,12-24.6,16.7c-22.5,11.3-50.6,21.9-88.3,18
		c-13.9-1.3-37.3-5.3-36.5-17.3c0.7-9.9,21.9-12.6,33.2-13.3c19.9-1.3,40.5,1.3,62.4-0.7c18-2,37.3-8.6,52.5-9.9
		C491,227.9,491.7,227.9,492.3,227.9z M464.4,237.1c-17.3,1.3-35.8,4.7-60.5,4.7c-15.2,0-53.2-0.7-52.5,12c0,7.9,19.3,12,28.5,13.3
		c13.3,1.3,29.2,1.3,40.5-0.7c24-4,45.2-12.6,57.2-27.2C475,235.2,468.3,237.1,464.4,237.1z"/>
	<path fill="#008FC4" d="M534.8,231.8c4.7,4.7,6,11.3,9.3,16.7c6,9.3,15.9,16.7,25.3,25.9c16.7,16.7,31.9,35.8,46.5,55.8
		c7.9,10.7,24,28.5,18.6,47.8c-6.6,21.9-47.2,17.3-58.5,2c-7.3-9.9-8.6-23.3-13.9-35.2c-9.3-21.9-24.6-39.2-43.9-53.8
		c-4-3.3-10-6.6-14.6-9.9c-2.6-2-9.3-6.6-9.3-14.6c-0.7-14.6,24-29.2,35.8-33.2C532.8,232.4,532.2,231.8,534.8,231.8z M500.3,263
		c0,9.3,7.3,12.6,10,15.2c4.7,4,10.7,7.3,15.2,10.7c20.6,15.2,34.5,30.6,43.1,53.8c4,10.7,6.6,25.3,12.6,33.9
		c5.3,7.3,25.3,14.6,37.3,7.9c20.6-11.3,0.7-37.3-7.9-48.5c-15.2-19.9-30.6-41.2-45.9-57.9c-9.3-9.3-18.6-16.7-25.3-27.2
		c-3.4-6-4.7-14.6-11.3-14.6C520.2,237.1,499.6,251.1,500.3,263z"/>
	<path fill="#008FC4" d="M459.1,246.5c-12.6,15.2-45.2,21.2-75.1,17.3c-7.9-1.3-22.5-3.3-22.5-9.3c0-8.6,26.6-9.3,37.3-10
		c12.6-0.7,25.3,0,37.3-0.7C443.8,243.1,455.8,241.2,459.1,246.5z M381.9,255.1c9.9,9.9,43.1,7.9,51.9-2
		C421.2,247.1,392.6,247.8,381.9,255.1z"/>
	<path fill="#008FC4" d="M279,251.1c8.6,0,27.2,26.6,28.5,37.3c2,16.7-8.6,28.5-16.7,40.5c-22.5,35.8-40.5,73.1-63.8,107
		c-14.6,21.2-32.6,41.2-46.5,67.1c-6,10.7-11.3,24-18,39.2c-5.3,12.6-14.6,29.2-26.6,30.6c-16.7,1.3-31.9-21.2-39.9-31.3
		c-14.6-18.6-33.9-53.2-19.3-83.1c11.3-23.3,33.9-31.3,55.8-45.9c19.3-13.3,41.8-27.9,59.2-42.5c26.6-23.3,44.6-55.8,63.1-89.8
		C259.1,272.9,269,251.1,279,251.1z M255,286.4c-18.6,33.2-33.2,61.8-61.1,85.7c-16.7,14.6-35.8,29.2-53.8,43.1
		c-19.3,14.6-41.8,24-51.9,45.9c-10.7,24,2.6,48.5,14.6,63.2c7.3,9.3,18,21.2,29.8,20.6c12-0.7,20.6-15.2,27.2-25.9
		c7.3-12,13.3-23.3,19.9-33.2c13.9-21.9,31.3-39.2,46.5-60.5c23.2-31.9,41.2-65.8,61.8-99c6-9.9,16.7-23.2,15.2-39.2
		c-1.3-12.6-17.3-33.2-26.6-31.3C268.3,259,259.7,277.6,255,286.4z"/>
	<path fill="#008FC4" d="M276.4,270.3c8.6-2,17.3,7.9,18.6,18c1.3,12-6.6,24.6-12,33.9c-18,29.2-33.9,57.2-54.5,83.8
		c-21.2,27.2-45.9,43.9-69.1,69.1c-7.3,7.9-17.3,18-27.2,16.7c-20.6-3.3-9.9-30.6-0.7-42.5c7.9-9.9,13.9-15.9,21.2-24.6
		c13.9-16.7,31.3-30.6,45.9-45.2c26.6-26.6,38.6-48.5,57.2-81.7C260.4,289,267.7,272.3,276.4,270.3z M205.9,419.3
		c23.2-20.6,39.9-46.5,55.8-71.8c8.6-13.3,18.6-26.6,24.6-39.9c4-10,5.3-27.9-4-31.3c-12-3.3-20.6,17.3-24.6,24
		c-12.6,22.5-24,43.1-37.9,62.4c-9.9,13.3-20.6,24.6-31.9,35.2c-11.3,11.3-24.6,21.9-23.3,40.5C180.6,441.8,194.6,429.2,205.9,419.3
		z"/>
	<path fill="#008FC4" d="M406.6,360.8c31.3-4,67.8,12.6,49.1,43.1c-2.6,4.7-9.9,10.7-9.3,16.7c0.7,7.9,15.9,13.3,21.2,16.5
		c9.9,6,21.9,13.3,18.6,30.6c-4.7,26.6-39.9,42.5-73.1,43.9c-18.6,0.7-38.6-2.6-57.9-7.3c-15.2-4-35.8-11.3-36.6-27.2
		c-1.3-18,17.3-19.9,20.6-36.5c1.3-7.9-2-16.7-0.7-24C343.5,389.3,378,364,406.6,360.8z M366.1,390.6c-4.7,5.3-12.6,16.5-12.6,25.3
		c0,4.7,6,13.9,5.3,20.6c-1.3,8.6-10.7,13.3-15.2,18c-6,6-12.6,12.6-10.7,23.3c2,12,20.6,18.6,33.2,21.9c39.2,9.3,85.1,3.3,102.3-18
		c4-5.3,9.3-14.6,7.9-24c-1.3-9.3-12.6-16.7-19.3-19.9c-5.3-2.6-25.3-6.6-25.9-14.6c-0.7-4.7,6.6-11.3,9.3-15.2
		c3.3-4.7,8.6-9.3,7.9-17.3c-0.7-15.2-19.3-21.2-35.8-19.9C394.6,371.3,377.4,379.4,366.1,390.6z"/>
	<path fill="#008FC4" d="M705.6,663.7c-91.1-3.4-182-9.3-264.5-21.2c-13.9-2-27.9-6-41.2-6c-24,0-36.6,15.9-49.1,30.6
		c-20.6,24.6-35.8,45.2-57.2,69.1c-12,13.9-24,31.9-47.2,26.6c-39.9-8.6-27.2-65.2-22.5-103.7c5.3-40.5,7.3-85.7,22.5-114.3
		c6.6-13.3,19.9-31.3,34.5-33.9c13.9-2.6,27.9,5.3,40.5,7.9c15.9,3.3,33.9,4,52.5,6.6c17.3,2.6,37.3,6,55.1,4.7
		c15.2-1.3,31.9-7.9,43.9-13.9c11.3-5.3,27.9-18,42.5-15.2c9.3,2,13.9,14.6,18.6,24c4.7,9.3,12,18,19.3,23.2
		c25.9,16.7,75.1,9.3,107.6,0c14.6-4,29.2-7.9,43.3-11.3v-4c-12.6,2.6-25.9,5.3-38.6,7.9c-35.2,8.6-87,20.6-110.4-3.3
		c-8.6-9.3-9.9-21.2-17.3-35.8c-4.7-9.3-18-19.9-15.9-31.9c1.3-7.9,5.3-15.2,9.3-23.3c3.3-6.6,8.6-15.9,8.6-24
		c0-12-12.6-25.3-19.9-33.2c-9.3-9.9-18.6-18-31.9-21.9c-4.7,6-4.7,13.3-8.6,20.6c-4,7.3-18,20.6-16.7,30.6
		c1.3,9.3,19.3,17.3,25.9,21.9c9.3,6,21.2,12.6,20.6,25.9c2,15.2-21.2,29.2-32.6,35.8c-15.2,9.3-30.6,17.3-51.9,18.6
		c-18.6,1.3-39.2-2-57.9-5.3c-19.3-3.3-38.6-5.3-51.9-12c-9.3-4.7-19.9-18-31.9-18c-15.2,0-32.6,25.9-41.2,39.9
		c-21.9,35.2-22.5,81.7-28.5,132.9c-2.6,23.2-8.6,50.6-6,73.1c2.6,19.3,16.7,37.9,33.2,42.5c15.2,4,33.2-4,42.5-11.3
		c14.6-12.6,26.6-34.5,40.5-52.5c13.3-18,27.2-37.9,41.8-51.2c7.9-6.6,17.3-13.9,28.5-15.2c13.3-1.3,28.5,3.4,42.5,5.3
		c85.7,10.7,176.2,16.7,267.8,19.9v-5.3h1.2V663.7z M510.3,437.1c-10-0.7-31.3-9.9-32.6-19.9c-0.7-9.3,14.6-21.2,22.5-23.3
		c12.6-2.6,30.6,12,31.3,25.9C531.5,429.8,523.6,437.8,510.3,437.1z"/>
	<path fill="#008FC4" d="M705.6,432.4c-2.6-0.7-5.3-1.3-7.3-2.6c0-4.7,3.3-7.9,7.3-11.3v-8.6c-5.3,2-9.9,4-15.9,3.3
		c4.7-4.7,10-8.6,15.9-12.6v-2c-3.3,2-6.6,4-9.9,5.3c-15.2,7.9-31.3,13.9-43.9,25.3c4.7,6,16.7,6,17.3,15.9c12,2.6,24.6,2.6,37.3,2
		v-14.6H705.6z"/>
	<path fill="#008FC4" d="M416,397.3c0.7,9.3-14.6,16.7-27.2,12C384.7,397.3,405.9,388.7,416,397.3z"/>
	<path fill="#008FC4" d="M705.6,522.2c-31.3,5.3-67.8,13.3-96.4,11.3c-28.5-2-35.8-15.9-45.9-37.3c-2.6-5.3-6-10.7-7.3-18
		c-2-12.6-1.3-35.8,7.3-37.3c5.3-0.7,12.6,4,19.3,6.6c18,6.6,45.2,7.3,65.8,11.3c7.9,2,17.3,10.7,29.2,7.9
		c-12,0.7-17.3-6.6-25.9-8.6c-15.2-3.4-35.8-2.6-52.5-7.3c-6-1.3-14.6-4.7-20.6-8.6c-6-3.3-12-11.3-19.3-9.9
		c-12,2-14.6,33.2-11.3,48.5c1.3,5.3,4.7,10.7,7.3,17.3c6,13.9,9.9,28.5,23.3,35.8c25.3,14.6,65.2,3.4,96.4-2
		c10.7-2,21.2-3.4,31.9-5.3v-4.7H705.6z"/>
	<path fill="#008FC4" d="M407.9,439.9c16.7-1.3,47.8,2.6,50.6,18.6c3.4,20.6-24,32.6-43.9,33.9c-21.9,2-60.5-2-61.8-19.3
		c-0.7-10.7,12.6-18.6,20.6-23.2C383.4,444.4,393.3,441.2,407.9,439.9z M383.4,453.2c-6,2.6-18,9.9-17.3,17.3
		c0.7,10,20.6,13.9,33.9,14.6c17.3,0,37.9-6,43.9-15.9c10.7-18.6-15.2-23.2-31.9-22.5C401.2,447.8,393.3,449.1,383.4,453.2z"/>
	<path fill="#008FC4" d="M705.6,513.6c-24,2.6-50.6,6.6-70.5,6c-15.2,0-33.2-4-41.8-11.3c-5.3-4.7-14.6-19.9-17.3-27.9
		c-2.6-7.3-3.3-15.9-2-25.3c10.7-4,22.5-0.7,33.9,0.7c11.3,1.3,23.3,2,33.2,5.3c9.3,2.6,19.3,8.6,32.6,7.9
		c-9.3,0.7-18.6-5.3-28.5-8.6c-12-3.3-25.9-2.6-38.6-5.3c-12.6-2-25.3-7.3-36.5-4.7c-6.6,18.6,2,33.2,8.6,45.2
		c3.4,6.6,5.3,12.6,9.3,16.7c7.3,7.3,19.3,10.7,31.9,11.3c27.2,2,59.2-3.4,87-7.3v-2.6h-1.3V513.6z"/>
	<path fill="#008FC4" d="M705.6,503.6c-31.9,3.4-69.7,6.6-87.7-3.3c-12.6-7.3-28.5-19.3-24.6-37.3c25.9-9.3,49.1,9.3,76.4,7.9h6.6
		c3.3,0-0.7-1.3-2-0.7c-15.9,0-29.2-4.7-43.3-7.9c-12.6-3.4-29.8-6.6-44.6-2c-3.3,19.3,7.3,31.3,18.6,40.5
		c21.9,18,63.8,11.3,101,6.6v-4H705.6z"/>
	<path fill="#008FC4" d="M-91.8,496.9v53.2c2.6-6,4-12,5.3-18.6C-85.2,518.2-87.8,507-91.8,496.9z"/>
	<path fill="#008FC4" d="M685,467.1C678.4,469.1,675.8,466.4,685,467.1L685,467.1z"/>
	<path fill="#008FC4" d="M705.6,467.1c-2,0-4,0-6,0.7L705.6,467.1L705.6,467.1z"/>
	<path fill="#008FC4" d="M698.3,467.8c-4.7,2-16.7,0-6,0C694.3,467.8,696.4,467.8,698.3,467.8z"/>
	<path fill="#008FC4" d="M683.1,468.4C673.7,471,672.4,467.8,683.1,468.4L683.1,468.4z"/>
	<path fill="#008FC4" d="M705.6,491.6c-22.5,1.3-45.9,0.7-61.8-4.7c-7.3-2.6-17.3-4.7-19.3-12c17.3-4.7,37.3-1.3,57.2-0.7
		c7.9,0,16.7,0,24.6,0v-0.7c-22.5,0-45.9-0.7-66.5-2.6c-9.9-1.3-21.9-5.3-28.5,2.6c8.6,17.3,34.5,24.6,61.1,24.6
		c11.3,0,22.5-0.7,33.9-1.3v-5.3L705.6,491.6L705.6,491.6z"/>
	<path fill="#008FC4" d="M685.7,469.7c3.3-2,10,0,14.6-0.7C697,471,690.4,469.7,685.7,469.7z"/>
	<path fill="#008FC4" d="M677.7,471.7c4.7-2,12,0,18-0.7C691,472.3,683.7,471,677.7,471.7z"/>
	<path fill="#008FC4" d="M705.6,653.2c-94.3-1.3-187.4-12-271.2-24c-14.6-2-30-6.6-43.1-5.3c-32.6,3.3-50.6,37.9-67.8,59.8
		c-7.9,10-16.7,19.9-27.9,29.2c-8.6,6.6-27.2,19.9-41.2,15.2c-13.3-4.7-11.3-27.9-8.6-45.9c3.3-20.6,6.6-35.2,9.9-49.1
		c7.3-31.9,17.3-63.1,41.2-77.8c22.5-13.3,57.9-15.2,93-9.9c16.7,2.6,33.9,4.7,50.6,4.7c18-0.7,36.5-3.3,51.2-1.3
		c20.6,2.6,38.6,14.6,58.5,18.6c21.9,4.7,45.9,4.7,71.1,2.6c33.9-2.6,57.9-13.3,84.4-22.5v-6c-35.2,10.7-63.8,24.6-109.7,24.6
		c-33.2,0-55.8-7.9-74.4-24c-6-5.3-12.6-10.7-19.9-12c-16.7-3.4-34.5,6-50.6,8.6c-37.3,6.6-72.4-6-111-6c-33.9,0-59.2,1.3-73.1,19.9
		c-15.2,20.6-21.9,62.4-27.2,96.4c-2.6,15.2-6.6,36.5-7.9,53.8c-2,24,4.7,40.5,19.3,42.5c15.2,2,31.3-12.6,41.2-20.6
		c12-10,21.9-21.2,30-31.9c17.3-21.9,34.5-53.8,61.1-61.8c15.9-4.7,35.2,0.7,53.8,3.3c83.8,12.6,176,19.9,267.8,22.5v-4h0.5V653.2z"
		/>
	<path fill="#008FC4" d="M705.6,643.1c-49.1-1.3-97.1-4.7-146.2-9.3c-43.9-4-87-10.7-127.6-17.3c-24-4-46.5-8.6-63.8,1.3
		c-24.6,13.9-38.6,42.5-59.2,62.4c-5.3,5.3-16.7,16.7-25.9,12c-13.3-6-2.6-41.2,2-56.4c13.9-44.6,37.3-79.7,95.6-76.5
		c22.5,1.3,47.8,6.6,74.4,8.6c51.9,4,97.1,15.9,153.5,13.9c26.6-1.3,53.8-1.3,75.1-8.6c7.9-2.6,15.2-6,22.5-10v-7.9
		c-17.3,7.3-34.5,15.2-55.1,18.6c-34.5,5.3-75.1,5.3-113.6-1.3c-17.3-3.3-34.5-7.3-52.5-9.3c-18-2-37.3-1.3-58.5-3.3
		c-36.5-4.7-74.4-13.9-106.3,2c-33.9,17.3-47.2,61.8-55.8,105.7c-2.6,14.6-7.3,31.3,3.4,42.5c15.2,2.6,26.6-5.3,35.2-13.3
		c24.6-21.2,39.9-61.1,71.1-75.7c16.7-7.3,39.2-2.6,60.5,0.7c83.8,13.3,176.8,23.3,270.5,25.3v-4L705.6,643.1L705.6,643.1z"/>
	<path fill="#008FC4" d="M22.4,636.5c-7.9-19.9-20.6-50.6-31.9-65.2c-6-7.9-18-21.9-29.8-19.3c-9.3,2-14.6,10.7-18.6,15.2
		c-5.3,6-10.7,12-15.2,17.3c-6.6,7.3-12.6,12.6-18.6,22.5v22c4.7-12,13.3-21.2,19.3-27.9c7.3-7.3,15.2-18,29.8-20.6
		c15.9-3.4,24.6,7.9,31.9,18c7.9,11.3,18.6,37.9,24,55.8c2.6,10.7,6,25.9,0,36.5c-7.9,15.2-27.9,19.9-42.5,19.9
		c-30,0-53.8-20.6-62.4-42.5v17.3c15.9,22.5,44.6,37.3,75.7,35.2c19.9-1.3,41.2-7.9,48.5-25.9C39.8,675.1,27.8,651.1,22.4,636.5z"/>
	<path fill="#008FC4" d="M705.6,621.3c-12.6-0.7-25.9-2-37.9-4c-7.3-0.7-16.7-0.7-21.2-6c18-4.7,39.2-5.3,59.2-7.3V594
		c-21.9,4.7-49.1,4.7-74.4,5.3c-37.3,0.7-73.1-1.3-107.6,1.3c-3.3,0-9.9,0-10.7,5.3c29.8,12,65.8,13.3,102.9,16.7
		c29.2,2.6,60.5,4.7,90.4,6v-7.3h-0.7V621.3z"/>
	<path fill="#008FC4" d="M-49.2,608.6c25.3-4,39.2,27.9,43.1,47.8c5.3,26.6-13.3,47.8-42.5,39.2c-19.3-6-35.8-26.6-34.5-48.5
		C-81.8,627.9-65.9,611.2-49.2,608.6z M-38.7,677c3.3-0.7,7.3-4.7,8.6-7.3c7.9-15.9-7.3-36.5-21.2-34.5
		C-77.9,639.2-64.6,683-38.7,677z"/>
	<path fill="#008FC4" d="M21.8,768.8c19.9-0.7,39.9-6,59.2-6c33.9,0.7,59.2,17.3,90.4,27.2c4.7,1.3,9.9,3.3,15.2,4.7h16.7
		c-15.9-4-29.8-9.3-43.9-14.6c-26.6-10-49.9-25.3-83.1-24c-19.9,0.7-39.2,5.3-59.8,6.6c-45.7,2-81.7-9.3-109.6-29.2v5.3
		C-64,757.4-24.1,770.1,21.8,768.8z"/>
	<path fill="#008FC4" d="M277.1,794.7c25.3-10.7,43.1-31.3,59.8-51.2c15.2-18,36.6-50.6,61.8-57.2c15.2-4,32.6,0,48.5,0.7
		c85.1,5.3,170.8,4,258.5,4v-5.3c-85.7-1.3-178.1,1.3-259.8-6c-15.2-1.3-33.2-5.3-46.5-2c-15.9,3.4-27.9,18-37.9,30.6
		c-10.7,12.6-21.2,26.6-29.8,37.3c-15.2,18.6-33.2,40.5-61.8,49.1H277.1L277.1,794.7z"/>
	<path fill="#008FC4" d="M292.3,794.7c29.2-17.3,49.1-43.9,71.8-66.5c12.6-12.6,27.2-24.6,47.2-25.9c24.6-2,51.2,2,77.8,2.6
		c66.5,2,134.2-0.7,200.7,0c5.3,0,9.9,0,15.2,0v-4.7c-87,0.7-178.8,0-259.2-2.6c-16.7-0.7-34.5-2.6-47.2,0.7
		c-25.9,7.3-43.1,33.9-60.5,53.2c-14.6,15.9-31.3,31.9-51.2,42.5h5.3L292.3,794.7L292.3,794.7z"/>
	<path fill="#008FC4" d="M85.6,780.1c20.6,1.3,39.9,8.6,58.5,14.6H160c-24.6-7.9-47.8-18.6-73.1-20.6c-21.2-1.3-42.5,2.6-63.1,2.6
		c-47.8,0-85.1-10.7-115.6-29.2v4.7c30.6,18.6,69.1,27.9,114.3,30C43,782.7,63.7,778.8,85.6,780.1z"/>
	<path fill="#008FC4" d="M705.6,716.2c-4.7,1.3-9.9,2-14.6,3.4c-12.6,2.6-27.2,4-34.5,12c13.3,5.3,31.3,5.3,49.1,4V716.2
		L705.6,716.2z"/>
	<path fill="#008FC4" d="M19.2,794.7h91.7c-7.3-1.3-15.2-2.6-22.5-3.3c-26.6-2-54.5,1.3-83.8-2c-37.3-4-69.7-13.3-97.1-27.9v4
		c26.6,13.9,57.9,22.5,93,27.2C7.2,794,13.2,794,19.2,794.7z"/>
	<path fill="#008FC4" d="M302.2,794.7c13.9-9.3,26.6-19.9,38.6-31.3c14.6-13.3,27.9-29.2,45.9-38.6c22.5-11.3,58.5-6,87-4.7
		c21.9,1.3,43.9-0.7,60.5,7.9c1.3,3.3-2.6,7.3-1.3,13.3c21.9,18.6,64.5,20.6,103.1,17.3c24-2,47.2-5.3,69.7-9.3v-4.7
		c-39.2,6-86.4,13.9-125,3.3c-6.6-2-15.2-5.3-15.9-9.3c-0.7-11.3,19.9-9.9,24.6-18c-26.6-6.6-57.2-3.3-87.7-5.3
		c-14.6-0.7-30-0.7-45.2-1.3c-19.9-0.7-40.5-4-57.9,0.7c-20.6,6-36.5,22.5-50.6,36.5c-15.9,15.9-30.6,31.3-49.1,42.5h3.3V794.7z"/>
	<path fill="#008FC4" d="M-34,794.7c-20.6-4.7-40.5-11.3-57.9-19.3v4c13.3,6,27.9,11.3,43.1,15.2H-34z"/>
	<path fill="#008FC4" d="M312.9,794.7c9.3-6.6,18-13.9,26.6-21.2c14.6-12,30.6-25.9,51.2-31.9c44.6-12.6,77.8,19.3,111.7,28.5
		c31.3,9.3,69.8,12,105.7,11.3c35.2-0.7,65.8-6.6,97.7-13.3v-6.6c-59.2,12.6-121.6,23.2-184.8,6.6c-23.3-6-36.5-18-57.2-26.6
		c-12-5.3-37.3-8.6-51.9-8.6c-24.6,0-42.5,13.3-59.2,27.2c-13.9,12-28.5,24.6-43.3,34.5L312.9,794.7L312.9,794.7z"/>
	<path fill="#008FC4" d="M324.9,794.7c21.2-14.6,47.2-37.3,81-31.3c25.3,4.7,47.8,18.6,73.1,25.3c11.3,2.6,23.3,4.7,35.2,6h57.9
		c-1.3,0-2,0-3.3,0c-41.8-3.3-81-7.3-113.6-19.9c-23.3-9.3-45.9-23.2-75.1-15.2c-22.5,6.6-39.9,22.5-58.5,35.8h3.4v-0.7H324.9z"/>
	<path fill="#008FC4" d="M-77.9,794.7c-4.7-2-9.3-3.3-13.9-5.3v4c1.3,0.7,2.6,0.7,3.3,1.3H-77.9L-77.9,794.7z"/>
	<path fill="#008FC4" d="M343.5,794.7c7.9-4,16.7-6.6,25.3-8.6c23.3-5.3,42.5,1.3,61.1,8.6h15.2c-17.3-6.6-33.9-13.9-51.2-15.2
		c-22.5-2-39.9,6.6-55.8,15.2H343.5z"/>
	<path fill="#008FC4" d="M582.8,90.3c-28.5,11.3-68.4,13.9-104.4,9.3c-15.9-2-33.2-6-50.6-7.9c-18-2-35.8-1.3-51.9-7.3
		c2-12,15.2-18.6,24.6-24.6c42.5-27.9,95.6-46.5,150.9-62.4h-6.6c-57.2,17.3-110.4,37.9-157.5,67.1c-25.3,15.9-52.5,33.2-89,32.6
		c-18,0-31.9-5.3-41.2-15.2c-5.3-5.3-7.9-17.3-15.2-18c-6.6-0.7-13.9,8.6-17.3,11.3c-5.3,5.3-10.7,10.7-15.2,14.6
		c-26.6,21.9-79.7,17.3-105,39.9c-19.3,17.3-9.3,53.2-12,81.7c-2,20.6-8.6,31.3-16.7,45.2c-13.9,14.6-35.2,22.5-46.5,35.2
		c-0.7,0.7-2.6,3.3-4,5.3c2,0,0,2-0.7,3.4c1.3,1.3,2.6,6,1.3,6c4,6,7.3,4.7,7.3,7.3c3.4,1.3,10.7,2,12.6,3.4c1.3-1.3,5.3-2,2,0
		c3.4-1.3,2.6-2.6,4,0c4-3.4,4.7-2.6,8.6-4.7c0-2,2-2,3.3-2.6c2.6-4.7,15.2-14.6,20.6-19.3c6-4.7,15.9-12,26.6-17.3
		c7.9-4,49.9-15.2,51.2,6c0.7,18-24,27.9-42.5,33.9c-24,7.3-50.6,9.9-61.8,13.9C39,339.5,22.4,359.5,3.8,380.1
		c-14.6,16.7-33.9,42.5-57.2,49.9c-14.6,4-27.2,1.3-38.6-4.7v5.3c15.2,7.3,32.6,10.7,49.1,2c21.2-11.3,37.3-33.2,54.5-49.9
		c19.9-18.6,38.6-27.9,65.8-39.2c35.2-14.6,82.4-23.3,102.9-53.2c6-9.3,16.7-27.9,10.7-39.2c-5.3-9.3-29.8-7.9-41.8-7.9
		c-8.6,0-27.2,0.7-34.5-3.3c-1.3-1.3-0.7-4-3.4-3.3c-6-13.9-5.3-31.9-6.6-47.2c-2-18.6-2.6-39.9,7.3-51.9
		c19.9-24,70.5-23.2,98.4-39.9c7.3-4.7,18.6-18,26.6-18c8.6,0,15.9,9.3,23.3,13.3c7.3,4,15.9,6.6,25.3,7.9c10,1.3,21.2,0,28.5,5.3
		c-2.6,10.7-13.9,17.3-21.9,24c-8.6,7.3-17.3,14.6-25.3,22.5c-15.9,14.6-37.3,27.9-40.5,53.2c10.7-0.7,19.3-9.3,27.9-15.2
		c45.2-30.6,97.7-49.9,158.2-65.2c24-6,50.6-12.6,78.4-10.7c16.7,1.3,30,5.3,45.9,12c7.3,2.6,35.8,13.9,36.6,21.9
		c1.3,7.3-6.6,13.3-10,18c-4.7,6-9.9,9.9-12,15.9c9.3,0,13.3-4.7,21.2-6c-1.3,8.6-9.9,11.3-12,19.3c53.2-24,91.7-63.1,144.2-88.3v-2
		C657,129,619.8,162.2,574.5,188c-1.3-2.6,3.3-6,5.3-7.9c7.9-8.6,18-16.7,24-25.9c-13.3,3.4-24.6,15.2-40.5,18.6
		c35.2-47.2,85.7-79.1,142.2-105V33.2c-13.9,6.6-27.9,13.3-42.5,19.3C635.9,64.3,609.3,79.6,582.8,90.3z M373.3,127.5
		c-24,9.3-43.3,17.3-65.8,26.6c-10.7,4.7-21.2,10.7-33.9,9.9c6.6-16.7,22.5-28.5,37.3-39.9c15.9-12,32.6-21.2,53.8-23.3
		c10.7-1.3,35.2-1.3,35.8,7.9C401.9,116.8,378.7,125.4,373.3,127.5z"/>
	<path fill="#008FC4" d="M705.6,78.9c-6,2.6-12,6-17.3,9.3c6-2.6,12-4.7,17.3-7.3V78.9z"/>
	<path fill="#008FC4" d="M536.2,209.2c-7.3,2.6-14.6,9.9-20.6,14.6c-6.6,5.3-14.6,9.9-21.2,14.6c-31.3,19.9-85.7,47.2-138.9,28.5
		c-8.6-2.6-19.9-7.3-19.9-15.9c0-6.6,9.3-11.3,17.3-13.3c27.2-6.6,62.4,0,88.3-2.6c18-2,33.9-7.3,49.1-12
		c15.2-5.3,33.9-11.3,42.5-19.3c2-2,4-6,6.6-10c2-3.4,5.3-6.6,7.9-9.3s15.9-13.3,14.6-19.9c-1.3-4.7-13.3-6-17.3-7.3
		c-6.6-2.6-12.6-8.6-19.3-11.3c-41.2-19.9-107-13.3-149.6-2c-22.5,6-43.9,13.9-63.2,23.3c-19.9,9.3-41.2,19.9-54.5,32.6
		c-11.3,10-19.3,24.6-27.9,37.9c-9.3,13.3-17.3,27.9-25.9,41.2c-18.6,29.8-40.5,45.9-74.4,59.2c-32.6,12.6-66.5,22.5-94.3,39.2
		c-13.9,7.9-25.9,19.3-36.5,30.6c-10.7,10.7-20.6,23.3-34.5,32.6c-18,11.3-37.9,6.6-54.5-2v6.6c10.7,7.3,22.5,12.6,37.3,11.3
		c21.9-2,35.8-24,49.1-36.5c11.3-11.3,24-23.3,37.3-31.9c28.5-18,65.2-26.6,98.4-40.5c34.5-13.9,57.9-33.2,77.8-61.1
		c9.3-13.3,18.6-27.9,26.6-42.5c7.9-14.6,15.2-31.3,27.2-42.5c14.6-13.3,35.8-22.5,57.2-31.9c50.6-21.9,122.9-37.3,183.5-18.6
		c10.7,3.4,19.3,9.9,30,14.6c2.6,0.7,18.6,2.6,19.9,7.3c2,6.6-13.3,17.3-17.3,20.6c-20.6,19.3-46.5,31.9-75.7,39.2
		c-19.9,4.7-45.9,4-70.5,2.6c-19.3-0.7-59.8-0.7-60.5,15.9c-0.7,9.9,13.3,16.7,22.5,19.9c11.3,4,24.6,6,36.5,6
		c48.5,0,81.7-20.6,114.3-40.5c16.7-10,33.2-18.6,49.9-27.9c2.6-1.3,6-3.4,8.6-5.3c-4,2-7.9,4-12,5.3
		C544.8,207.9,540.1,207.3,536.2,209.2z"/>
	<path fill="#008FC4" d="M576.1,192.5c-5.3,2.6-9.9,5.3-15.2,8.6C566.1,198.5,570.8,195.9,576.1,192.5z"/>
	<path fill="#008FC4" d="M705.6,112.8c-38.6,18.6-70.5,45.2-107.6,66.5c-6.6,4-13.9,8.6-21.9,13.3c9.3-4.7,19.3-8.6,30-10
		c3.3,4.7,3.3,12,7.3,15.9c24,7.9,39.9-9.3,58.5-19.9c8.6-5.3,17.3-10.7,27.2-15.2c2-0.7,4-2,6.6-2.6v-47.8H705.6z"/>
	<path fill="#008FC4" d="M705.6,224.5c-2.6-8.6-7.3-15.2-13.9-17.3c-18-4.7-38.6,13.9-55.8,14.6c-13.3,0.7-30.6-4.7-37.9-13.3
		c-2-2-5.3-15.9-9.3-17.3c-6.6-2-21.2,7.3-26.6,9.9c-22.5,12-47.2,27.2-68.4,39.9c-37.9,21.9-94.3,53.2-148.2,29.2
		c-10-4-24-12.6-23.3-24c1.3-15.9,36.5-18.6,58.5-17.3c25.3,1.3,48.5,4,69.7,0.7c31.9-4.7,57.2-18,77.8-34.5
		c6.6-5.3,13.9-11.3,17.3-19.9c-7.3-5.3-16.7-5.3-24.6-7.9c-10.7-4-19.3-9.3-29.2-12c-31.3-9.3-73.8-10.7-111-2.6
		c-21.9,4.7-43.1,12-63.1,19.9c-19.9,7.9-39.2,17.3-52.5,30.6c-12.6,12-18,29.2-26.6,45.2c-25.3,47.2-53.8,84.4-107.6,107
		c-33.9,13.9-74.4,24.6-101,42.5c-13.3,8.6-25.9,20.6-37.3,33.9c-11.3,12.6-26.6,35.2-45.9,35.2c-13.9,0-27.2-8.6-36.5-15.2
		c-0.7,0-0.7-0.7-1.3-0.7v7.3c1.3,1.3,3.3,2.6,5.3,4c9.3,6.6,24.6,21.2,39.9,19.9c13.9-1.3,27.9-24.6,35.8-35.2
		C0.8,433,12.7,421,25.3,411.1c25.3-19.9,65.2-32.6,97.7-44.6c55.1-20.6,85.7-55.1,112.3-101.6C244,249.6,250,232.3,260,217
		c11.3-16.7,30-27.9,49.9-36.6c46.5-21.2,120.3-38.6,180.1-19.9c10.7,3.3,19.9,9.3,31.3,13.3c7.3,2.6,14.6,1.3,20.6,6.6
		c-2.6,8.6-10.7,14.6-17.3,19.3c-21.2,15.9-46.5,27.9-79.7,31.3c-21.9,2-44.6-2-69.1-2.6c-19.9-0.7-53.8,0.7-55.1,18.6
		c-1.3,13.3,13.3,21.9,22.5,26.6c30.6,15.9,68.4,10.7,98.4-1.3c43.1-18,77.1-42.5,115.6-64.5c6-3.3,19.9-12,25.9-8.6
		c3.3,2,6,13.3,7.9,15.9c11.3,15.2,42.5,25.3,65.8,25.3c7.3,0,14.6-1.3,22.5,1.3c11.3,4.7,15.9,18.6,21.2,30.6
		c2.6,5.3,4.7,9.9,7.3,14.6v-62.4L705.6,224.5L705.6,224.5z"/>
	<path fill="#008FC4" d="M705.6,314.3c-1.3-1.3-2.6-2.6-4-3.3c-11.3-12-18-28.5-32.6-41.2c-12.6-10.7-30.6-15.9-45.9-24
		c-14.6-7.3-34.5-15.2-42.5-27.2c-3.3-4.7-3.3-14.6-7.9-17.3c-16.7,2.6-25.9,12.6-38.6,18.6c10.7-2.6,21.2-15.2,34.5-15.2
		c4,2,4,9.9,6.6,14.6c7.3,13.3,27.2,22.5,41.2,31.3c15.2,8.6,31.9,18,43.9,27.9c13.3,11.3,21.9,27.9,34.5,41.2
		c3.3,3.3,7.3,6.6,11.3,9.3v-14.6H705.6z"/>
	<path fill="#008FC4" d="M662.5,457.1c-12.6-4-30.6-2.6-45.2-5.3c-11.3-2-33.2-7.3-32.6-18c0.7-10.7,31.9-11.3,41.8-13.3
		c31.9-5.3,55.1-18.6,78.4-31.3v-4c-11.3,6.6-24,13.3-35.8,19.3c-11.3,5.3-25.9,12-43.3,14.6c-12,2-45.2-0.7-47.2,9.9
		c-2.6,13.3,20.6,18.6,32.6,20.6c14.6,2.6,33.2,2.6,46.5,6.6c10.7,3.4,20.6,12,38.6,9.3c-7.9-2-14.6-0.7-21.2-2.6
		C669.8,462.4,667.1,458.4,662.5,457.1z"/>
	<path fill="#008FC4" d="M705.6,465.7c-12.6,0-24-2-29.2-9.3c-12-3.3-26.6-2.6-42.5-4.7c-9.9-1.3-33.9-4.7-33.9-13.9
		c0-9.9,27.2-12.6,35.2-14.6c25.9-6.6,48.5-18,69.8-29.2v-2c-22.5,11.3-46.5,23.2-74.4,29.2c-13.3,2.6-30,3.3-37.9,13.9
		c5.3,11.3,18.6,13.9,31.9,15.9c13.3,2,30.6,0,43.1,4.7c4.7,1.3,8.6,6.6,13.9,7.9C689.1,465.8,697,466.4,705.6,465.7L705.6,465.7
		L705.6,465.7z"/>
	<path fill="#008FC4" d="M-91.8,477.7c10.7,12,19.3,26.6,19.3,44.6c0,20.6-9.3,37.9-19.3,53.2v13.3c0.7-1.3,2-2.6,2.6-4
		c12-17.3,27.2-34.5,29.2-59.2c2.6-24-13.9-39.9-25.9-51.9c-2-2-4-4-6.6-6v10L-91.8,477.7L-91.8,477.7z"/>
	<path fill="#008FC4" d="M451.8,269.7c26.6-17.3,55.1-31.9,81-48.5c-30,17.3-65.8,37.3-100.3,56.6c-7.9,4-29.2,13.3-31.3,21.9
		c-1.3,6,6.6,12.6,6,17.3c-1.3,7.9-18.6,11.3-26.6,14.6c-10.7,4-19.9,11.3-29.2,9.3c2.6-18,18-24,24.6-37.9
		c-7.3-13.3-22.5-18-36.6-25.9c-10.7-6-29.8-17.3-27.2-34.5c2.6-15.9,32.6-19.3,50.6-19.3c26.6,0,53.8,6.6,81,5.3
		c30-2,53.8-13.9,73.1-27.2c6-4.7,13.3-9.3,15.9-17.3c-7.3-4.7-11.3-3.4-17.3-5.3c-15.2-4.7-27.2-12-41.8-15.2
		c-48.5-10.7-107-1.3-146.2,13.3c-27.9,10.7-54.5,22.5-67.8,45.2c-7.3,12.6-11.3,25.3-18,37.9c-18.6,35.8-41.2,69.1-77.1,92.4
		c-11.3,7.3-23.3,13.3-37.3,19.3c-41.2,17.3-81,26.6-111.7,57.9c-15.2,15.2-37.3,45.9-37.9,74.4c-0.7,18,11.3,33.9,18.6,47.2
		c16.7,29.8,27.2,54.5,42.5,87c9.3,19.9,27.9,49.9,10.7,71.1C29,734.4-32.8,737.6-64.1,722.4C-74,717-84,709.7-92.6,700.5v7.9
		c12.6,13.3,29.2,24,50.6,28.5c33.9,7.9,77.1,0,101-14.6c9.3-6,21.2-13.9,22.5-25.3c2-19.3-13.3-38.6-21.2-51.9
		c-19.9-31.9-33.2-60.5-49.9-96.4C2.4,531.5-6.4,513-4.9,490.9c2.6-38.6,30.6-65.2,59.2-82.4c29.8-17.3,68.4-25.9,97.7-42.5
		c47.8-26.6,73.8-64.5,97.7-113c7.3-14.6,12.6-33.2,25.3-44.6c14.6-13.9,39.2-23.2,63.1-31.9c41.2-14.6,95.6-20.6,139.6-7.3
		c8.6,2.6,16.7,6,25.3,8.6s17.3,4,25.3,8.6c-2,7.3-10,12.6-15.9,16.7c-19.3,13.3-44.6,24-77.8,24s-75.1-13.9-108.9-2
		c-7.9,2.6-16.7,8.6-18,15.9c-2.6,13.9,9.9,24.6,18.6,31.9c8.7,7.3,24,14.6,25.3,25.3c1.3,11.3-8.6,21.2-14.6,29.2
		c-6.6,9.3-12.6,18-17.3,25.9c-10.7,17.3-22.5,37.9-17.3,65.8c6,0,9.3-6,12-9.9c21.9-27.2,52.5-61.8,98.4-65.2
		c24.6-2,43.9,6.6,64.5,9.3c0-14.6-9.3-24-19.9-32.6c-7.9-6.6-26.6-15.2-27.2-26.6C430.6,283,444.5,274.4,451.8,269.7z"/>
	<path fill="#008FC4" d="M705.6,356.7c-2-7.9-9.3-13.3-13.9-18.6c-6-6.6-10.7-13.3-15.2-18.6c-21.2-27.9-42.5-45.2-71.1-65.8
		c-16.7-12-38.6-22.5-41.2-45.2c-12.6,1.3-20.6,7.9-29.2,13.3c7.9-4.7,15.9-9.3,25.9-10.7c4,24.6,24,33.2,41.8,45.9
		c25.3,18.6,45.9,37.9,63.8,62.4c6.6,9.3,22.5,26.6,24.6,39.2c2,16.7-12,31.9-21.2,39.9c-11.3,9.3-31.3,18-53.8,18
		c-21.2,0-51.9-1.3-62.4-11.3c-17.3-17.3-21.9-43.9-41.2-68.4c-11.3-14.6-29.2-26.6-43.9-37.9c-2-2-11.3-7.3-11.3-16.7
		c0-13.3,18.6-22.5,28.5-29.2c7.9-5.3,18.6-11.3,26.6-16.7c2-1.3,7.3-4.7,0.7-1.3c-11.3,6-24,14.6-35.8,22.5
		c-7.9,5.3-29.2,16.7-28.5,29.2c0.7,11.3,24,24.6,30,29.2c25.3,19.9,37.3,41.2,53.2,67.8c7.9,13.3,15.9,27.2,27.2,33.2
		c8.6,4.7,21.2,1.3,34.5,1.3c9.9,0,19.9,0.7,29.2,0c27.9-2,52.5-16.7,67.8-33.2c5.3-6,13.3-12.6,15.2-18.6v-0.7L705.6,356.7
		L705.6,356.7z"/>
	<path fill="#008FC4" d="M528.3,225.1c-2,1.3-4,2-6,3.3C522.3,230.5,525.5,227.2,528.3,225.1z"/>
	<path fill="#008FC4" d="M528.3,225.1c2-1.3,4.7-2.6,6.6-4c-2,1.3-4,2-6,3.4C528.9,225.1,528.3,225.1,528.3,225.1z"/>
	<path fill="#008FC4" d="M554.1,215.2c4.7,4,4,10.7,6.6,15.2c6,11.3,21.2,21.2,32.6,30.6c24,19.3,43.1,37.3,61.8,62.4
		c7.9,11.3,20.6,25.9,20.6,41.2c0.7,13.9-8.6,27.9-17.3,35.2c-9.9,7.9-26.6,13.9-43.9,13.3c-15.2-0.7-39.2-2.6-49.9-8.6
		c-11.3-6-16.7-20.6-22.5-33.9c-12.6-28.5-24.6-45.9-48.5-64.5c-6.6-5.3-27.2-15.2-27.9-27.9c-0.7-13.9,22.5-26.6,32.6-33.2
		c13.9-9.3,27.9-18,40.5-24.6C543.5,218.5,548.9,215.2,554.1,215.2z M522.3,230.5c-8.6,5.3-18,12-25.9,17.3
		c-7.9,6-24.6,15.2-24,28.5c0.7,10.7,15.9,19.9,22.5,24.6c23.2,17.3,37.9,32.6,49.8,60.5c6,14.6,11.3,32.6,23.3,39.9
		c11.3,6.6,38.6,9.9,53.2,9.9c31.3,0,56.4-27.9,43.9-60.5c-4.7-11.3-13.3-23.2-22.5-33.2c-18-20.6-33.9-39.9-54.5-56.4
		c-11.3-9.3-22.5-16.7-28.5-26.6c-2-3.3-3.3-11.3-7.3-15.9C540.8,219.1,531.5,225.1,522.3,230.5z"/>
	<path fill="#008FC4" d="M545.5,223.2c4.7,3.3,4.7,10.7,6.6,13.9c6,11.3,16.7,18,27.2,27.2c18,15.9,35.8,35.8,51.9,56.4
		c11.3,13.9,27.2,29.2,24.6,52.5c-2,18-14.6,31.9-35.2,32.6c-15.2,0.7-41.8-5.3-50.6-12c-8.6-7.3-12.6-22.5-18-35.2
		c-13.9-34.5-33.9-49.9-60.5-71.8c-4-3.3-10.7-7.3-10.7-15.2c0-11.3,13.3-18.6,20.6-24.6C516.3,236.5,527.5,226.4,545.5,223.2z
		 M507.6,243.8c-7.3,5.3-22.5,15.2-22.5,26.6c0.7,6.6,8.6,12.6,11.3,15.2c5.3,4.7,10.7,7.9,15.2,11.3c21.9,17.3,35.8,34.5,45.9,61.8
		c5.3,13.9,8.6,27.9,19.3,34.5c9.9,6,30,9.3,43.1,8.6c8.6-0.7,18-5.3,22.5-10.7c16.7-21.9-1.3-47.8-12.6-62.4
		c-16.7-21.9-32.6-41.2-51.9-59.2c-9.9-9.3-21.2-16.7-27.9-27.9c-2.6-4.7-3.3-10.7-7.3-15.9C528.3,228.5,518.2,235.8,507.6,243.8z"
		/>
	<path fill="#008FC4" d="M705.6,462.4c-2.6-0.7-5.3-0.7-7.9-2c-2-0.7-0.7-4.7-2-6.6c-7.3-2.6-17.3-2.6-27.2-2.6
		c-12-0.7-43.9-1.3-44.6-11.3c-0.7-7.9,20.6-13.9,27.2-16.7c19.3-7.3,37.3-15.9,55.1-25.3v-1.3c-19.9,9.9-39.9,20.6-61.8,27.2
		c-9.3,2.6-33.2,6.6-33.2,15.2s24,11.3,31.3,12c14.6,1.3,30.6-0.7,40.5,3.3c2.6,1.3,4.7,4.7,7.9,6.6c4.7,2.6,10,3.3,15.9,4v-2.6
		L705.6,462.4L705.6,462.4z"/>
	<path fill="#008FC4" d="M705.6,633.9c-108.9-3.3-211.4-12.6-295-40.5c-4,0,2-1.3-0.7-1.3c-4-0.7-7.9-2-12.6-2c2-2,6.6,0,9.3,0
		c-2.6-2-6.6-2-10.7-2c2-2.6,15.9,2.6,17.3-0.7c58.5-0.7,114.9,7.3,175.4,7.3c41.8,0,85.1,1.3,117.7-8.6v-10.7
		c-2.6,1.3-5.3,2.6-7.9,3.3c-21.2,7.9-52.5,8.6-81,9.3c-58.5,1.3-112.3-6-164.2-10c-27.2-2-54.5-8.6-78.4-7.9
		c-45.2,2-66.5,33.2-76.4,69.8c-2,7.9-4.7,18.6,0,26.6c9.3,2.6,15.2-6,19.9-10.7c15.9-16.7,29.2-38.6,51.2-47.8
		c19.9-7.9,42.5-2,63.8,2c81.7,15.9,177.5,26.6,271.8,27.9v-4h0.5V633.9z M348.7,602.6c0.7-0.7,0.7-1.3,0.7-2c-2.6,2-5.3,4-7.3,6.6
		c1.3-8.6,11.3-15.9,22.5-18c0,0.7-0.7,1.3-2,1.3c4,0.7,9.9-2.6,15.9-2.6C368.7,590,357.5,596.6,348.7,602.6z"/>
</g>
</svg>
